<?xml version="1.0" encoding="UTF-8" standalone="no"?>
<!-- Created with Inkscape (http://www.inkscape.org/) -->

<svg
   xmlns:dc="http://purl.org/dc/elements/1.1/"
   xmlns:cc="http://creativecommons.org/ns#"
   xmlns:rdf="http://www.w3.org/1999/02/22-rdf-syntax-ns#"
   xmlns:svg="http://www.w3.org/2000/svg"
   xmlns="http://www.w3.org/2000/svg"
   xmlns:sodipodi="http://sodipodi.sourceforge.net/DTD/sodipodi-0.dtd"
   xmlns:inkscape="http://www.inkscape.org/namespaces/inkscape"
   width="320px"
   height="320px"
   viewBox="0 0 320 320"
   version="1.1"
   id="SVGRoot"
   inkscape:version="0.92.2 (5c3e80d, 2017-08-06)"
   sodipodi:docname="tilleset.svg">
  <sodipodi:namedview
     id="base"
     pagecolor="#ffffff"
     bordercolor="#666666"
     borderopacity="1.0"
     inkscape:pageopacity="0.0"
     inkscape:pageshadow="2"
     inkscape:zoom="6.4"
     inkscape:cx="124.92534"
     inkscape:cy="39.524872"
     inkscape:document-units="px"
     inkscape:current-layer="layer1"
     showgrid="true"
     inkscape:window-width="1680"
     inkscape:window-height="1001"
     inkscape:window-x="0"
     inkscape:window-y="8"
     inkscape:window-maximized="1"
     objecttolerance="1"
     inkscape:snap-path-clip="false"
     inkscape:snap-path-mask="false"
     gridtolerance="1"
     guidetolerance="1">
    <inkscape:grid
       type="xygrid"
       id="grid78"
       spacingx="32"
       spacingy="32"
       snapvisiblegridlinesonly="false"
       enabled="true"
       empspacing="1" />
  </sodipodi:namedview>
  <defs
     id="defs62">
    <inkscape:perspective
       sodipodi:type="inkscape:persp3d"
       inkscape:vp_x="0 : 160 : 1"
       inkscape:vp_y="0 : 1000 : 0"
       inkscape:vp_z="320 : 160 : 1"
       inkscape:persp3d-origin="160 : 106.66667 : 1"
       id="perspective80" />
    <clipPath
       clipPathUnits="userSpaceOnUse"
       id="clipPath193">
      <rect
         style="fill:#280b0b"
         id="rect195"
         width="31.921875"
         height="32"
         x="0.078125"
         y="5.6843419e-14" />
    </clipPath>
  </defs>
  <metadata
     id="metadata65">
    <rdf:RDF>
      <cc:Work
         rdf:about="">
        <dc:format>image/svg+xml</dc:format>
        <dc:type
           rdf:resource="http://purl.org/dc/dcmitype/StillImage" />
        <dc:title />
      </cc:Work>
    </rdf:RDF>
  </metadata>
  <g
     id="layer1"
     inkscape:groupmode="layer"
     inkscape:label="Calque 1">
    <g
       id="g189"
       clip-path="url(#clipPath193)">
      <rect
         style="fill:#782121"
         y="0"
         x="0"
         height="32"
         width="32"
         id="rect110" />
      <path
         inkscape:connector-curvature="0"
         id="path164"
         d="m 1.71875,43.984375 c 0.3130889,0.03815 0.1039956,-0.364242 0.15625,-0.46875 0.01647,-0.03294 0.061655,-0.04518 0.078125,-0.07813 0.023292,-0.04659 -0.023292,-0.109666 0,-0.15625 0.01647,-0.03294 0.061655,-0.04518 0.078125,-0.07813 0.011646,-0.02329 -0.00824,-0.05342 0,-0.07813 0.018414,-0.05524 0.059711,-0.101008 0.078125,-0.15625 0.01647,-0.04941 -0.01647,-0.10684 0,-0.15625 0.018414,-0.05524 0.059711,-0.101008 0.078125,-0.15625 0.00824,-0.02471 -0.011646,-0.05483 0,-0.07813 0.01647,-0.03294 0.069193,-0.0424 0.078125,-0.07813 0.018948,-0.07579 -0.018948,-0.158583 0,-0.234375 0.00893,-0.03573 0.066479,-0.04319 0.078125,-0.07813 0.01647,-0.04941 -0.012632,-0.105722 0,-0.15625 0.014123,-0.05649 0.064002,-0.09976 0.078125,-0.15625 0.012632,-0.05053 -0.010214,-0.105179 0,-0.15625 0.01615,-0.08075 0.064587,-0.153145 0.078125,-0.234375 0.012844,-0.07706 -0.034939,-0.164498 0,-0.234375 0.026042,-0.05208 0.1302083,-0.02604 0.15625,-0.07813 0.034939,-0.06988 -0.012844,-0.157313 0,-0.234375 0.013538,-0.08123 0.064587,-0.153145 0.078125,-0.234375 0.012844,-0.07706 -0.024705,-0.16026 0,-0.234375 0.029692,-0.08908 0.1265579,-0.145299 0.15625,-0.234375 0.024705,-0.07412 -0.012844,-0.157313 0,-0.234375 0.013538,-0.08123 0.064587,-0.153145 0.078125,-0.234375 0.012844,-0.07706 -0.024705,-0.16026 0,-0.234375 0.1395788,-0.418737 0.1812437,-0.0437 0.234375,-0.46875 0.01615,-0.129203 -0.03158,-0.264305 0,-0.390625 0.022773,-0.09109 0.1265579,-0.145299 0.15625,-0.234375 0.024705,-0.07412 -0.021463,-0.159256 0,-0.234375 0.031995,-0.111981 0.1242555,-0.20052 0.15625,-0.3125 0.021463,-0.07512 -0.00969,-0.156854 0,-0.234375 0.01647,-0.131762 0.063461,-0.258651 0.078125,-0.390625 0.011503,-0.10353 -0.028617,-0.212342 0,-0.3125 0.2629869,-0.920455 0.061996,0.580391 0.3125,-0.546875 0.028246,-0.127108 -0.028246,-0.263518 0,-0.390625 0.025264,-0.113689 0.1041667,-0.208334 0.15625,-0.3125 0,-0.130209 -0.028246,-0.263518 0,-0.390625 0.1895557,-0.853001 0.1415683,0.210259 0.234375,-0.625 0.014379,-0.129412 -0.028246,-0.263518 0,-0.390625 0.025264,-0.113689 0.098469,-0.211383 0.15625,-0.3125 0.046585,-0.08152 0.1358814,-0.142717 0.15625,-0.234375 0.033895,-0.15253 -0.033895,-0.316221 0,-0.46875 0.020369,-0.09166 0.1181158,-0.148574 0.15625,-0.234375 0.066892,-0.150507 0.095081,-0.315829 0.15625,-0.46875 0.043253,-0.108133 0.1280039,-0.199516 0.15625,-0.3125 0.025264,-0.101057 -0.014731,-0.209381 0,-0.3125 0.044882,-0.314171 0.3185544,-0.613183 0.390625,-0.9375 0.022597,-0.101687 -0.025264,-0.211444 0,-0.3125 0.028246,-0.112985 0.1041667,-0.208334 0.15625,-0.3125 0.052083,-0.104167 0.098469,-0.211383 0.15625,-0.3125 0.1648459,-0.288481 0.1837254,-0.203477 0.3125,-0.546875 0.4573202,-1.219521 -0.2652385,0.576772 0.078125,-0.625 0.025795,-0.09028 0.1096653,-0.152852 0.15625,-0.234375 0.4627312,-0.80978 -0.025906,0.09067 0.15625,-0.546875 -0.00415,-0.23598 0.254821,-0.344999 0.3125,-0.546875 0.028617,-0.100159 -0.020429,-0.210357 0,-0.3125 0.00722,-0.03611 0.059177,-0.04654 0.078125,-0.07813 0.059919,-0.09987 0.1242555,-0.20052 0.15625,-0.3125 0.021463,-0.07512 -0.024705,-0.16026 0,-0.234375 0.029692,-0.08908 0.1192631,-0.148073 0.15625,-0.234375 0.2877755,-0.08128 0.028809,-0.267336 0.078125,-0.390625 0.043253,-0.108133 0.1129972,-0.204368 0.15625,-0.3125 0.00967,-0.02418 0,-0.05208 0,-0.07813 0.026042,-0.07813 0.035756,-0.16376 0.078125,-0.234375 0.037896,-0.06316 0.1288945,-0.08786 0.15625,-0.15625 0.029015,-0.07254 -0.029015,-0.161838 0,-0.234375 0.027355,-0.06839 0.1288945,-0.08786 0.15625,-0.15625 0.029015,-0.07254 -0.018948,-0.158583 0,-0.234375 0.00893,-0.03573 0.069193,-0.0424 0.078125,-0.07813 0.018948,-0.07579 -0.029015,-0.161838 0,-0.234375 0.027355,-0.06839 0.1288945,-0.08786 0.15625,-0.15625 0.029015,-0.07254 -0.018948,-0.158583 0,-0.234375 0.00893,-0.03573 0.066479,-0.04319 0.078125,-0.07813 0.01647,-0.04941 -0.012632,-0.105722 0,-0.15625 0.014123,-0.05649 0.064002,-0.09976 0.078125,-0.15625 0.012632,-0.05053 -0.028891,-0.112915 0,-0.15625 0.032301,-0.04845 0.1213115,-0.03154 0.15625,-0.07813 0.274704,-0.03413 0.018565,-0.223161 0.078125,-0.3125 0.040857,-0.06129 0.1233096,-0.09037 0.15625,-0.15625 0.023292,-0.04659 -0.012632,-0.105722 0,-0.15625 0.014123,-0.05649 0.059711,-0.101008 0.078125,-0.15625 0.00824,-0.02471 -0.011646,-0.05483 0,-0.07813 0.01647,-0.03294 0.069193,-0.0424 0.078125,-0.07813 0.018948,-0.07579 -0.034939,-0.164498 0,-0.234375 0.026042,-0.05208 0.1239493,-0.02967 0.15625,-0.07813 0.028891,-0.04334 -0.012632,-0.105722 0,-0.15625 0.014123,-0.05649 0.064002,-0.09976 0.078125,-0.15625 0.012632,-0.05053 -0.01647,-0.10684 0,-0.15625 0.011646,-0.03494 0.069193,-0.0424 0.078125,-0.07813 0.018948,-0.07579 -0.034939,-0.164498 0,-0.234375 0.095715,-0.19143 0.1741937,0.02429 0.234375,-0.15625 0.01647,-0.04941 -0.012632,-0.105722 0,-0.15625 0.014123,-0.05649 0.064002,-0.09976 0.078125,-0.15625 0.012632,-0.05053 -0.028891,-0.112915 0,-0.15625 0.032301,-0.04845 0.1150745,-0.03695 0.15625,-0.07813 0.018414,-0.01842 -0.00632,-0.05286 0,-0.07813 0.019973,-0.07989 0.058152,-0.154483 0.078125,-0.234375 0.00632,-0.02527 -0.011646,-0.05483 0,-0.07813 0.01647,-0.03294 0.069193,-0.0424 0.078125,-0.07813 0.018948,-0.07579 -0.018948,-0.158583 0,-0.234375 0.00893,-0.03573 0.066479,-0.04319 0.078125,-0.07813 0.01647,-0.04941 -0.028891,-0.112915 0,-0.15625 0.032301,-0.04845 0.1213115,-0.03154 0.15625,-0.07813 0.238208,-0.05531 0.030107,-0.216464 0.078125,-0.3125 0.01647,-0.03294 0.05208,-0.05208 0.07813,-0.07813 0.05208,-0.07813 0.114259,-0.150394 0.15625,-0.234375 0.01165,-0.02329 -0.0063,-0.05286 0,-0.07813 0.01997,-0.07989 0.0413,-0.160719 0.07813,-0.234375 0.01647,-0.03294 0.06919,-0.0424 0.07813,-0.07813 0.01895,-0.07579 -0.03494,-0.164498 0,-0.234375 0.07732,-0.154634 0.157058,-0.0016 0.234375,-0.15625 0.03683,-0.07366 0.06198,-0.153624 0.07813,-0.234375 0.01021,-0.05107 -0.02329,-0.109666 0,-0.15625 0.03294,-0.06588 0.112056,-0.09733 0.15625,-0.15625 0.148002,0.0089 0.05208,-0.182292 0.07813,-0.234375 0.04199,-0.08398 0.107942,-0.153862 0.15625,-0.234375 0.05992,-0.09987 0.08637,-0.219331 0.15625,-0.3125 0.04419,-0.05893 0.115392,-0.09496 0.15625,-0.15625 0.01445,-0.02167 0,-0.05208 0,-0.07813 0.02604,-0.05208 0.04319,-0.109666 0.07813,-0.15625 0.04419,-0.05893 0.112056,-0.09733 0.15625,-0.15625 0.148002,0.0089 0.05208,-0.182292 0.07813,-0.234375 0.03844,-0.07688 0.274061,-0.235623 0.3125,-0.3125 0.09621,-0.192419 -0.226776,0.07053 0.07813,-0.234375 0.04786,-0.04786 0.204461,-0.06651 0.234375,-0.15625 0.01647,-0.04941 -0.01647,-0.10684 0,-0.15625 0.02991,-0.08974 0.186518,-0.108393 0.234375,-0.15625 0.304901,-0.304902 -0.01808,-0.04196 0.07813,-0.234375 0.01647,-0.03294 0.06166,-0.04519 0.07813,-0.07813 0.01165,-0.02329 -0.01841,-0.05971 0,-0.07813 0.104167,-0.104167 0.07497,0.165728 0.15625,-0.07813 0.01647,-0.04941 -0.03683,-0.119422 0,-0.15625 0.03683,-0.03683 0.109665,0.02329 0.15625,0 0.02329,-0.01165 -0.01841,-0.05971 0,-0.07813 0.01841,-0.01841 0.05971,0.01841 0.07813,0 0.01841,-0.01841 -0.01841,-0.05971 0,-0.07813 0.01841,-0.01841 0.05971,0.01841 0.07813,0 0.01841,-0.01841 -0.01841,-0.05971 0,-0.07813 0.01841,-0.01841 0.05971,0.01841 0.07813,0 0.01841,-0.01841 -0.01841,-0.05971 0,-0.07813 0.01841,-0.01841 0.05971,0.01841 0.07813,0 0.01841,-0.01841 -0.01841,-0.05971 0,-0.07813 0.01841,-0.01841 0.05971,0.01841 0.07813,0 0.01841,-0.01841 -0.01841,-0.05971 0,-0.07813 0.01841,-0.01841 0.05971,0.01841 0.07813,0 0.01841,-0.01841 -0.01841,-0.05971 0,-0.07813 0.03683,-0.03683 0.119422,0.03683 0.15625,0 0.01841,-0.01841 -0.01841,-0.05971 0,-0.07813 0.01841,-0.01841 0.05971,0.01841 0.07813,0 0.01841,-0.01841 -0.01841,-0.05971 0,-0.07813 0.03683,-0.03683 0.119422,0.03683 0.15625,0 0.01841,-0.01841 -0.01841,-0.05971 0,-0.07813 0.03683,-0.03683 0.119422,0.03683 0.15625,0 0.01841,-0.01841 -0.01841,-0.05971 0,-0.07813 0.01841,-0.01841 0.05483,0.01165 0.07813,0 0.03294,-0.01647 0.04519,-0.06166 0.07813,-0.07813 0.02329,-0.01165 0.05483,0.01165 0.07813,0 0.03294,-0.01647 0.04519,-0.06166 0.07813,-0.07813 0.04659,-0.02329 0.109665,0.02329 0.15625,0 0.03294,-0.01647 0.04519,-0.06166 0.07813,-0.07813 0.02329,-0.01165 0.05342,0.0082 0.07813,0 0.05524,-0.01841 0.101007,-0.05971 0.15625,-0.07813 0.04941,-0.01647 0.109665,0.02329 0.15625,0 0.03294,-0.01647 0.04319,-0.06648 0.07813,-0.07813 0.04941,-0.01647 0.104167,0 0.15625,0 0.02604,0 0.05483,0.01165 0.07813,0 0.03294,-0.01647 0.04519,-0.06166 0.07813,-0.07813 0.04659,-0.02329 0.109665,0.02329 0.15625,0 0.03294,-0.01647 0.04319,-0.06648 0.07813,-0.07813 0.07412,-0.02471 0.160259,0.02471 0.234375,0 0.05524,-0.01841 0.101007,-0.05971 0.15625,-0.07813 0.07031,-0.02344 0.164063,0.02344 0.234375,0 0.05524,-0.01841 0.101007,-0.05971 0.15625,-0.07813 0.08302,-0.02767 0.229483,0.02767 0.3125,0 0.05524,-0.01841 0.101007,-0.05971 0.15625,-0.07813 0.07813,-0.02604 0.15625,0.05208 0.234375,0 0.04845,-0.0323 0.02967,-0.12395 0.07813,-0.15625 0.04324,-0.02883 0.260611,0.02594 0.3125,0 0.03294,-0.01647 0.04319,-0.06648 0.07813,-0.07813 0.05315,-0.01772 0.3492,0.02071 0.390625,0 0.193079,-0.09654 -0.02697,-0.07813 0.15625,-0.07813 0.01856,0 0.29499,0.0088 0.3125,0 0.03294,-0.01647 0.04519,-0.06166 0.07813,-0.07813 0.04929,-0.02464 0.341338,0.02464 0.390625,0 0.03294,-0.01647 0.04519,-0.06166 0.07813,-0.07813 0.01067,-0.0053 0.45808,-0.0053 0.46875,0 0.03294,0.01647 0.04519,0.06165 0.07813,0.07813 0.04659,0.02329 0.119422,-0.03683 0.15625,0 0.01841,0.01841 -0.01841,0.05971 0,0.07813 0.03906,0.03906 0.195313,-0.03906 0.234375,0 0.01841,0.01841 -0.01841,0.05971 0,0.07813 0.01597,0.01597 0.203399,-0.01549 0.234375,0 0.03294,0.01647 0.04519,0.06165 0.07813,0.07813 0.02329,0.01165 0.05208,0 0.07813,0 0.02604,0.02604 0.04519,0.06165 0.07813,0.07813 0.04659,0.02329 0.109665,-0.02329 0.15625,0 0.03294,0.01647 0.04519,0.06165 0.07813,0.07813 0.08348,0.04174 0.07277,-0.04174 0.15625,0 0.03294,0.01647 0.04519,0.06165 0.07813,0.07813 0.04659,0.02329 0.109665,-0.02329 0.15625,0 0.03294,0.01647 0.04519,0.06165 0.07813,0.07813 0.0491,0.02455 0.263397,-0.02455 0.3125,0 0.03294,0.01647 0.04519,0.06165 0.07813,0.07813 0.0625,0.03125 0.171875,-0.03125 0.234375,0 0.03294,0.01647 0.04519,0.06165 0.07813,0.07813 0.04659,0.02329 0.106839,-0.01647 0.15625,0 0.05524,0.01841 0.101007,0.05971 0.15625,0.07813 0.06933,0.02311 0.339468,-0.02558 0.390625,0 0.03294,0.01647 0.04519,0.06165 0.07813,0.07813 0.05065,0.02533 0.395147,-0.02454 0.46875,0 0.05524,0.01841 0.101007,0.05971 0.15625,0.07813 0.04658,0.01553 0.393057,0 0.46875,0 0.06063,0 0.449573,-0.01278 0.46875,0 0.06129,0.04086 0.09496,0.115392 0.15625,0.15625 0.02167,0.01445 0.05208,0 0.07813,0 0.02604,0 0.05208,0 0.07813,0 0.234375,0 0.46875,0 0.703125,0 0.46875,0 0.9375,0 1.40625,0 0.15625,0 0.3125,0 0.46875,0 0.05208,0 0.109665,0.02329 0.15625,0 0.06588,-0.03294 0.09037,-0.12331 0.15625,-0.15625 0.0081,-0.004 0.461066,0 0.46875,0 0.187785,0 -0.03294,0.0082 0.3125,-0.07813 0.102151,-0.02554 0.288474,0.02554 0.390625,0 0.07989,-0.01997 0.154483,-0.05815 0.234375,-0.07813 0.02526,-0.0063 0.05483,0.01165 0.07813,0 0.08398,-0.04199 0.150393,-0.11426 0.234375,-0.15625 0.02329,-0.01165 0.05208,0 0.07813,0 0.07813,0 0.157767,0.01532 0.234375,0 0.448856,-0.08977 -0.02242,-0.07813 0.234375,-0.07813 0.07813,0 0.164498,0.03494 0.234375,0 0.05208,-0.02604 0.03695,-0.115075 0.07813,-0.15625 0.01841,-0.01841 0.05208,0 0.07813,0 0.07813,0 0.158583,0.01895 0.234375,0 0.03573,-0.0089 0.04319,-0.06648 0.07813,-0.07813 0.234375,-0.07813 0.07813,0.03906 0.234375,0 0.07989,-0.01997 0.154483,-0.05815 0.234375,-0.07813 0.07185,-0.01796 0.366707,0.02392 0.390625,0 0.04118,-0.04118 0.03695,-0.115075 0.07813,-0.15625 0.03683,-0.03683 0.106839,0.01647 0.15625,0 0.05524,-0.01841 0.101007,-0.05971 0.15625,-0.07813 0.07486,-0.02495 0.318249,0.02412 0.390625,0 0.03494,-0.01165 0.04519,-0.06166 0.07813,-0.07813 0.0625,-0.03125 0.171875,0.03125 0.234375,0 0.03294,-0.01647 0.04319,-0.06648 0.07813,-0.07813 0.04941,-0.01647 0.104167,0 0.15625,0 0.02604,0 0.05483,0.01165 0.07813,0 0.03294,-0.01647 0.04518,-0.06166 0.07813,-0.07813 0.04659,-0.02329 0.109665,0.02329 0.15625,0 0.03294,-0.01647 0.04518,-0.06166 0.07813,-0.07813 0.02329,-0.01165 0.05208,0 0.07813,0 0.07813,0 0.164498,0.03494 0.234375,0 0.05208,-0.02604 0.03695,-0.115075 0.07813,-0.15625 0.01841,-0.01841 0.05483,0.01165 0.07813,0 0.03294,-0.01647 0.04518,-0.06166 0.07813,-0.07813 0.02329,-0.01165 0.05342,0.0082 0.07813,0 0.05524,-0.01841 0.101007,-0.05971 0.15625,-0.07813 0.04941,-0.01647 0.109665,0.02329 0.15625,0 0.03294,-0.01647 0.0424,-0.06919 0.07813,-0.07813 0.07579,-0.01895 0.158583,0.01895 0.234375,0 0.03573,-0.0089 0.04518,-0.06166 0.07813,-0.07813 0.02329,-0.01165 0.05483,0.01165 0.07813,0 0.03294,-0.01647 0.04518,-0.06166 0.07813,-0.07813 0.02329,-0.01165 0.05646,0.01445 0.07813,0 0.06129,-0.04086 0.09496,-0.115393 0.15625,-0.15625 0.02167,-0.01445 0.05483,0.01165 0.07813,0 0.259108,-0.259108 -0.07366,0.03683 0.15625,-0.07813 0.03294,-0.01647 0.04319,-0.06648 0.07813,-0.07813 0.04941,-0.01647 0.104167,0 0.15625,0 0.02604,0 0.05483,0.01165 0.07813,0 0.06588,-0.03294 0.09037,-0.12331 0.15625,-0.15625 0.02329,-0.01165 0.06648,0.02329 0.07813,0 0.02329,-0.04659 -0.02329,-0.109666 0,-0.15625 0.01165,-0.02329 0.05342,0.0082 0.07813,0 0.05524,-0.01841 0.101007,-0.05971 0.15625,-0.07813 0.0247,-0.0082 0.05483,0.01165 0.07813,0 0.06588,-0.03294 0.09037,-0.12331 0.15625,-0.15625 0.02329,-0.01165 0.05971,0.01841 0.07813,0 0.161643,-0.161644 -0.247012,0.0063 0.07813,-0.15625 0.02329,-0.01165 0.05483,0.01165 0.07813,0 0.03294,-0.01647 0.04748,-0.0577 0.07813,-0.07813 0.04845,-0.0323 0.115075,-0.03695 0.15625,-0.07813 0.09515,-0.09516 0.0366,-0.174548 0.15625,-0.234375 0.02329,-0.01165 0.05483,0.01165 0.07813,0 0.06588,-0.03294 0.09496,-0.115393 0.15625,-0.1562505 0.04845,-0.032301 0.123949,-0.029674 0.15625,-0.078125 0.02889,-0.043336 -0.01647,-0.1068394 0,-0.15625 0.01027,-0.030813 0.271647,-0.2716468 0.3125,-0.3125 0.05208,-0.052083 0.104167,-0.1041667 0.15625,-0.15625 0.02604,-0.026042 0.04518,-0.061655 0.07813,-0.078125 0.02329,-0.011646 0.05971,0.018414 0.07813,0 0.01841,-0.018414 0,-0.052083 0,-0.078125 0.02604,-0.026042 0.04748,-0.057696 0.07813,-0.078125 0.04845,-0.032301 0.115075,-0.036949 0.15625,-0.078125 0.04118,-0.041175 0.04582,-0.1077989 0.07813,-0.15625 0.04086,-0.061286 0.12331,-0.090369 0.15625,-0.15625 0.01165,-0.023292 -0.01445,-0.056457 0,-0.078125 0.03852,-0.05778 0.280366,-0.2482325 0.3125,-0.3125 0.09621,-0.1924181 -0.226776,0.070526 0.07813,-0.234375 0.04118,-0.041176 0.115075,-0.03695 0.15625,-0.078125 0.01841,-0.018414 -0.01165,-0.054833 0,-0.078125 0.178774,-0.3575474 -0.03238,0.3315169 0.15625,-0.234375 0.0082,-0.024705 -0.0082,-0.05342 0,-0.078125 0.03683,-0.1104854 0.119422,-0.2020146 0.15625,-0.3125 0.0082,-0.024705 -0.01841,-0.059711 0,-0.078125 0.04118,-0.041176 0.115075,-0.03695 0.15625,-0.078125 0.01841,-0.018414 -0.01165,-0.054833 0,-0.078125 0.01647,-0.03294 0.05208,-0.052083 0.07813,-0.078125 0,-0.052083 -0.01647,-0.1068394 0,-0.15625 0.02329,-0.069877 0.12331,-0.090369 0.15625,-0.15625 0.01165,-0.023292 -0.01165,-0.054833 0,-0.078125 0.04199,-0.083982 0.114259,-0.1503931 0.15625,-0.234375 0.01165,-0.023292 -0.01165,-0.054833 0,-0.078125 0.01647,-0.03294 0.06166,-0.045185 0.07813,-0.078125 0.01165,-0.023292 -0.01165,-0.054833 0,-0.078125 0.01647,-0.03294 0.06648,-0.043186 0.07813,-0.078125 0.01647,-0.049411 0,-0.1041667 0,-0.15625 0,-0.026042 -0.01165,-0.054833 0,-0.078125 0.01647,-0.03294 0.06166,-0.045185 0.07813,-0.078125 0.02329,-0.046585 -0.03683,-0.1194215 0,-0.15625 0.01841,-0.018414 0.05971,0.018414 0.07813,0 0.03906,-0.039063 -0.03906,-0.1953125 0,-0.234375 0.01841,-0.018414 0.05971,0.018414 0.07813,0 0.03906,-0.039063 -0.03906,-0.1953125 0,-0.234375 0.01841,-0.018414 0.05971,0.018414 0.07813,0 0.0031,-0.00314 0,-0.2838096 0,-0.3125"
         style="fill:none;stroke:#000000;stroke-width:1px;stroke-linecap:butt;stroke-linejoin:miter;stroke-opacity:1" />
      <path
         inkscape:connector-curvature="0"
         id="path166"
         d="m 11.796875,43.28125 c 0,-0.260417 0,-0.520834 0,-0.78125 0,-0.02604 0,-0.05208 0,-0.07813 0,-0.02604 -0.01165,-0.05483 0,-0.07813 0.01647,-0.03294 0.05208,-0.05208 0.07813,-0.07813 0,-0.05208 -0.01647,-0.10684 0,-0.15625 0.01165,-0.03494 0.06648,-0.04319 0.07813,-0.07813 0.01647,-0.04941 -0.01647,-0.10684 0,-0.15625 0.01165,-0.03494 0.06648,-0.04319 0.07813,-0.07813 0.01647,-0.04941 -0.01263,-0.105722 0,-0.15625 0.01412,-0.05649 0.064,-0.09976 0.07813,-0.15625 0.01263,-0.05053 -0.01021,-0.105179 0,-0.15625 0.01615,-0.08075 0.06198,-0.153624 0.07813,-0.234375 0.03788,-0.189394 -0.07636,-0.184643 0.07813,-0.390625 0.03494,-0.04659 0.130208,-0.02604 0.15625,-0.07813 0.03494,-0.06988 -0.01105,-0.157036 0,-0.234375 0.0801,-0.560729 0.03675,-0.08575 0.234375,-0.546875 0.177104,-0.158698 0.01989,-0.372183 0.07813,-0.546875 0.0032,-0.0095 0.303187,-0.450125 0.3125,-0.46875 0.03683,-0.07366 0.04569,-0.158683 0.07813,-0.234375 0.04588,-0.107046 0.124255,-0.20052 0.15625,-0.3125 0.02146,-0.07512 -0.02146,-0.159256 0,-0.234375 0.032,-0.111981 0.119422,-0.202015 0.15625,-0.3125 0.04199,-0.125973 0.0315,-0.266293 0.07813,-0.390625 0.03297,-0.08792 0.109665,-0.152852 0.15625,-0.234375 0.05778,-0.101118 0.104167,-0.208334 0.15625,-0.3125 0.05208,-0.104167 0.124255,-0.20052 0.15625,-0.3125 0.192025,-0.672088 -0.282861,0.295426 0.07813,-0.546875 0.108484,-0.25313 0.360266,-0.371871 0.46875,-0.625 0.360986,-0.842301 -0.1139,0.125212 0.07813,-0.546875 0.09131,-0.319588 0.177858,-0.277592 0.3125,-0.546875 0.17257,-0.101463 0.02881,-0.267336 0.07813,-0.390625 0.03487,-0.08718 0.109665,-0.152852 0.15625,-0.234375 0.05778,-0.101118 0.09633,-0.212635 0.15625,-0.3125 0.01895,-0.03158 0.0709,-0.04201 0.07813,-0.07813 0.02043,-0.102144 -0.03869,-0.215784 0,-0.3125 0.02163,-0.05407 0.104167,-0.05208 0.15625,-0.07813 0.05208,-0.07813 0.130455,-0.144094 0.15625,-0.234375 0.02862,-0.100159 -0.02043,-0.210357 0,-0.3125 0.0072,-0.03611 0.05208,-0.05208 0.07813,-0.07813 0.05208,-0.05208 0.128895,-0.08786 0.15625,-0.15625 0.02901,-0.07254 -0.01895,-0.158583 0,-0.234375 0.0089,-0.03573 0.06648,-0.04319 0.07813,-0.07813 0.01647,-0.04941 -0.01934,-0.107892 0,-0.15625 0.03487,-0.08718 0.09991,-0.15926 0.15625,-0.234375 0.0221,-0.02946 0.06648,-0.04319 0.07813,-0.07813 0.01647,-0.04941 -0.02889,-0.112915 0,-0.15625 0.0323,-0.04845 0.130208,-0.02604 0.15625,-0.07813 0.03494,-0.06988 -0.01895,-0.158583 0,-0.234375 0.0089,-0.03573 0.0577,-0.04748 0.07813,-0.07813 0.0323,-0.04845 0.04319,-0.109666 0.07813,-0.15625 0.04419,-0.05893 0.12331,-0.09037 0.15625,-0.15625 0.02329,-0.04659 -0.01647,-0.10684 0,-0.15625 0.01165,-0.03494 0.06165,-0.04519 0.07813,-0.07813 0.01165,-0.02329 0,-0.05208 0,-0.07813 0.02604,-0.05208 0.04319,-0.109666 0.07813,-0.15625 0.04419,-0.05893 0.12331,-0.09037 0.15625,-0.15625 0.02329,-0.04659 -0.01647,-0.10684 0,-0.15625 0.0022,-0.0065 0.144066,-0.140005 0.15625,-0.15625 0.05208,-0.07813 0.104167,-0.15625 0.15625,-0.234375 0,-0.02604 -0.01165,-0.05483 0,-0.07813 0.01647,-0.03294 0.0577,-0.04748 0.07813,-0.07813 0.0323,-0.04845 0.03695,-0.115075 0.07813,-0.15625 0.04118,-0.04118 0.115075,-0.03695 0.15625,-0.07813 0.04118,-0.04118 0.04582,-0.107799 0.07813,-0.15625 0.02043,-0.03064 0.06648,-0.04319 0.07813,-0.07813 0.01647,-0.04941 -0.02329,-0.109666 0,-0.15625 0.03294,-0.06588 0.104167,-0.104167 0.15625,-0.15625 0.130208,-0.130209 0.260417,-0.260417 0.390625,-0.390625 0.02604,-0.02604 0.05208,-0.05208 0.07813,-0.07813 0.02604,-0.05208 0.03695,-0.115075 0.07813,-0.15625 0.18975,-0.189751 0.114721,0.02323 0.234375,-0.15625 0.0323,-0.04845 0.03695,-0.115075 0.07813,-0.15625 0.18975,-0.189751 0.114721,0.02323 0.234375,-0.15625 0.0323,-0.04845 0.03695,-0.115075 0.07813,-0.15625 0.04118,-0.04118 0.107799,-0.04583 0.15625,-0.07813 0.03064,-0.02043 0.05208,-0.05208 0.07813,-0.07813 0.109869,-0.109869 0.135821,-0.146036 0.3125,-0.234375 0.07366,-0.03683 0.168494,-0.02871 0.234375,-0.07813 0.07657,-0.05743 0.04835,-0.198408 0.15625,-0.234375 0.178571,-0.05952 0.12968,0.07892 0.234375,-0.07813 0.0323,-0.04845 0.02967,-0.12395 0.07813,-0.15625 0.04334,-0.02889 0.106839,0.01647 0.15625,0 0.06988,-0.02329 0.08479,-0.138386 0.15625,-0.15625 0.07579,-0.01895 0.15625,0 0.234375,0 0.02604,0 0.05483,0.01165 0.07813,0 0.03294,-0.01647 0.04519,-0.06165 0.07813,-0.07813 0.02329,-0.01165 0.05208,0 0.07813,0 0.05208,-0.05208 0.09496,-0.115393 0.15625,-0.15625 0.02167,-0.01445 0.05483,0.01165 0.07813,0 0.03294,-0.01647 0.0424,-0.06919 0.07813,-0.07813 0.07579,-0.01895 0.158583,0.01895 0.234375,0 0.03573,-0.0089 0.04519,-0.06165 0.07813,-0.07813 0.02329,-0.01165 0.05483,0.01165 0.07813,0 0.03294,-0.01647 0.0424,-0.06919 0.07813,-0.07813 0.07579,-0.01895 0.15625,0 0.234375,0 0.02604,0 0.05483,0.01165 0.07813,0 0.03294,-0.01647 0.04319,-0.06648 0.07813,-0.07813 0.04941,-0.01647 0.112914,0.02889 0.15625,0 0.04845,-0.0323 0.02967,-0.12395 0.07813,-0.15625 0.01809,-0.01206 0.268489,0.011 0.3125,0 0.05649,-0.01412 0.101007,-0.05971 0.15625,-0.07813 0.02471,-0.0082 0.05342,0.0082 0.07813,0 0.05524,-0.01842 0.101007,-0.05971 0.15625,-0.07813 0.02471,-0.0082 0.05208,0 0.07813,0 0.07813,0 0.15625,0 0.234375,0 0.02604,0 0.05971,0.01841 0.07813,0 0.04118,-0.04118 0.02604,-0.130209 0.07813,-0.15625 0.06988,-0.03494 0.15625,0 0.234375,0 0.02604,0 0.05483,0.01165 0.07813,0 0.03294,-0.01647 0.0424,-0.06919 0.07813,-0.07813 0.07579,-0.01895 0.15625,0 0.234375,0 0.05208,0 0.104167,0 0.15625,0 0.05208,0 0.106839,0.01647 0.15625,0 0.03494,-0.01165 0.0424,-0.06919 0.07813,-0.07813 0.06117,-0.01529 0.532638,0 0.625,0 0.02604,0 0.05286,0.0063 0.07813,0 0.07989,-0.01997 0.153145,-0.06459 0.234375,-0.07813 0.09245,-0.01541 0.522497,0 0.625,0 0.130208,0 0.260417,0 0.390625,0 0.05208,0 0.104167,0 0.15625,0 0.02604,0 0.05483,0.01165 0.07813,0 0.08398,-0.04199 0.150393,-0.11426 0.234375,-0.15625 0.02329,-0.01165 0.05208,0 0.07813,0 0.07813,0 0.15625,0 0.234375,0 0.286458,0 0.572917,0 0.859375,0 1.223958,0 2.447917,0 3.671875,0 0.364583,0 0.729167,0 1.09375,0 0.09807,0 0.439233,0.01476 0.46875,0 0.03294,-0.01647 0.0424,-0.06919 0.07813,-0.07813 0.101057,-0.02527 0.208333,0 0.3125,0 0.182292,0 0.364583,0 0.546875,0 0.07813,0 0.15625,0 0.234375,0 0.02604,0 0.05342,0.0082 0.07813,0 0.05524,-0.01842 0.101007,-0.05971 0.15625,-0.07813 0.07288,-0.02429 0.318418,0.02407 0.390625,0 0.03494,-0.01165 0.04518,-0.06165 0.07813,-0.07813 0.03098,-0.01549 0.218403,0.01597 0.234375,0 0.04118,-0.04118 0.02967,-0.12395 0.07813,-0.15625 0.04324,-0.02883 0.260611,0.02594 0.3125,0 0.03294,-0.01647 0.04518,-0.06165 0.07813,-0.07813 0.04659,-0.02329 0.109665,0.02329 0.15625,0 0.03294,-0.01647 0.04518,-0.06165 0.07813,-0.07813 0.02329,-0.01165 0.05342,0.0082 0.07813,0 0.05524,-0.01842 0.101007,-0.05971 0.15625,-0.07813 0.04941,-0.01647 0.109665,0.02329 0.15625,0 0.06588,-0.03294 0.09037,-0.12331 0.15625,-0.15625 0.02329,-0.01165 0.05483,0.01165 0.07813,0 0.259108,-0.259108 -0.07366,0.03683 0.15625,-0.07813 0.03294,-0.01647 0.04518,-0.06165 0.07813,-0.07813 0.02329,-0.01165 0.05483,0.01165 0.07813,0 0.03294,-0.01647 0.04518,-0.06165 0.07813,-0.07813 0.02329,-0.01165 0.05646,0.01444 0.07813,0 0.06129,-0.04086 0.09496,-0.115393 0.15625,-0.15625 0.02167,-0.01445 0.05483,0.01165 0.07813,0 0.03294,-0.01647 0.04518,-0.06165 0.07813,-0.07813 0.02329,-0.01165 0.05483,0.01165 0.07813,0 0.357548,-0.178774 -0.331517,0.03238 0.234375,-0.15625 0.0247,-0.0082 0.05342,0.0082 0.07813,0 0.05524,-0.01842 0.101007,-0.05971 0.15625,-0.07813 0.0247,-0.0082 0.05483,0.01165 0.07813,0 0.06588,-0.03294 0.09037,-0.12331 0.15625,-0.15625 0.02329,-0.01165 0.05208,0 0.07813,0 0.05208,-0.05208 0.09496,-0.115393 0.15625,-0.15625 0.02167,-0.01445 0.05483,0.01165 0.07813,0 0.03294,-0.01647 0.05208,-0.05208 0.07813,-0.07813 0.08939,-0.08939 0.09248,-0.108953 0.234375,-0.15625 0.0247,-0.0082 0.06648,0.02329 0.07813,0 0.02329,-0.04659 -0.01647,-0.10684 0,-0.15625 0.05182,-0.155465 0.07292,-0.03646 0.15625,-0.07813 0.03294,-0.01647 0.04748,-0.0577 0.07813,-0.07813 0.04845,-0.0323 0.107799,-0.04583 0.15625,-0.07813 0.03064,-0.02043 0.05208,-0.05208 0.07813,-0.07813 0.02604,-0.02604 0.0577,-0.04748 0.07813,-0.07813 0.0323,-0.04845 0.04582,-0.107799 0.07813,-0.15625 0.02043,-0.03064 0.05208,-0.05208 0.07813,-0.07813 0.02604,-0.02604 0.04748,-0.0577 0.07813,-0.07813 0.04845,-0.0323 0.115075,-0.03695 0.15625,-0.07813 0.01841,-0.01842 -0.01841,-0.05971 0,-0.07813 0.01841,-0.01842 0.05971,0.01841 0.07813,0 0.304901,-0.304902 -0.01808,-0.04196 0.07813,-0.234375 0.04687,-0.09375 0.1875,-0.140625 0.234375,-0.234375 0.01165,-0.02329 0,-0.05208 0,-0.07813 0.05208,-0.05208 0.115393,-0.09496 0.15625,-0.15625 0.01445,-0.02167 -0.01841,-0.05971 0,-0.07813 0.01841,-0.01842 0.05971,0.01841 0.07813,0 0.01841,-0.01842 -0.01165,-0.05483 0,-0.07813 0.03294,-0.06588 0.12331,-0.09037 0.15625,-0.15625 0.01165,-0.02329 -0.0082,-0.05342 0,-0.07813 0.01841,-0.05524 0.064,-0.09976 0.07813,-0.15625 0.01263,-0.05053 -0.02889,-0.112915 0,-0.15625 0.0323,-0.04845 0.115075,-0.03695 0.15625,-0.07813 0.304901,-0.304902 -0.01808,-0.04196 0.07813,-0.234375 0.01647,-0.03294 0.06166,-0.04519 0.07813,-0.07813 0.01165,-0.02329 -0.0082,-0.05342 0,-0.07813 0.01841,-0.05524 0.064,-0.09976 0.07813,-0.15625 0.01263,-0.05053 -0.02889,-0.112915 0,-0.15625 0.0323,-0.04845 0.123949,-0.02967 0.15625,-0.07813 0.02889,-0.04334 -0.01647,-0.10684 0,-0.15625 0.01165,-0.03494 0.06166,-0.04519 0.07813,-0.07813 0.01165,-0.02329 -0.0063,-0.05286 0,-0.07813 0.01997,-0.07989 0.05815,-0.154483 0.07813,-0.234375 0.0063,-0.02527 -0.01165,-0.05483 0,-0.07813 0.01647,-0.03294 0.06919,-0.0424 0.07813,-0.07813 0.01895,-0.07579 -0.03494,-0.164498 0,-0.234375 0.02604,-0.05208 0.115075,-0.03695 0.15625,-0.07813 0.01841,-0.01842 -0.0082,-0.05342 0,-0.07813 0.221316,-0.442632 -0.02911,0.116461 0.07813,-0.3125 0.01412,-0.05649 0.05971,-0.101008 0.07813,-0.15625 0.03906,-0.117188 -0.07813,-0.07813 0,-0.234375 0.03294,-0.06588 0.115393,-0.09496 0.15625,-0.15625 0.01445,-0.02167 0,-0.05208 0,-0.07813 0,-0.104167 -0.02526,-0.211444 0,-0.3125 0.0089,-0.03573 0.06166,-0.04519 0.07813,-0.07813 0.02455,-0.0491 -0.02455,-0.263397 0,-0.3125 0.01647,-0.03294 0.06166,-0.04519 0.07813,-0.07813 0.01165,-0.02329 0,-0.05208 0,-0.07813 0,-0.03534 -0.01041,-0.44793 0,-0.46875 0.01647,-0.03294 0.06648,-0.04319 0.07813,-0.07813 0.0144,-0.04321 0,-0.390074 0,-0.46875 0,-0.02604 -0.01841,-0.05971 0,-0.07813 0.01841,-0.01841 0.05971,0.01841 0.07813,0 0.0025,-0.0025 0,-0.215428 0,-0.234375"
         style="fill:none;stroke:#000000;stroke-width:1px;stroke-linecap:butt;stroke-linejoin:miter;stroke-opacity:1" />
      <path
         inkscape:connector-curvature="0"
         id="path168"
         d="m -10.9375,14.921875 c 0.25,-0.333334 0.104167,-0.3125 0.3125,-0.3125 0.02604,0 0.05971,0.01841 0.07813,0 0.01841,-0.01841 -0.01841,-0.05971 0,-0.07813 0.01841,-0.01841 0.05971,0.01841 0.07813,0 0.01841,-0.01841 -0.01841,-0.05971 0,-0.07813 0.01841,-0.01841 0.05483,0.01165 0.07813,0 0.03294,-0.01647 0.04519,-0.06166 0.07813,-0.07813 0.02329,-0.01165 0.05971,0.01841 0.07813,0 0.01841,-0.01841 -0.02471,-0.06989 0,-0.07813 0.07412,-0.02471 0.164498,0.03494 0.234375,0 0.052083,-0.02604 0.03695,-0.115075 0.078125,-0.15625 0.018414,-0.01841 0.054833,0.01165 0.078125,0 0.03294,-0.01647 0.045185,-0.06166 0.078125,-0.07813 0.023292,-0.01165 0.054833,0.01165 0.078125,0 0.03294,-0.01647 0.043186,-0.06648 0.078125,-0.07813 0.049411,-0.01647 0.1068394,0.01647 0.15625,0 0.034939,-0.01165 0.047482,-0.0577 0.078125,-0.07813 0.048451,-0.0323 0.1010073,-0.05971 0.15625,-0.07813 0.2069284,-0.06898 -0.093476,0.226356 0.3125,-0.07813 0.046585,-0.03494 0.026042,-0.130209 0.078125,-0.15625 0.069877,-0.03494 0.1577671,0.01532 0.234375,0 0.0571,-0.01142 0.1041667,-0.05208 0.15625,-0.07813 0.078125,-0.02604 0.1531445,-0.06459 0.234375,-0.07813 0.077062,-0.01284 0.1618377,0.02901 0.234375,0 0.068389,-0.02736 0.09309,-0.118354 0.15625,-0.15625 0.070615,-0.04237 0.160718,-0.0413 0.234375,-0.07813 0.083982,-0.04199 0.1432839,-0.133478 0.234375,-0.15625 0.1263206,-0.03158 0.2614221,0.01615 0.390625,0 0.2973094,-0.03716 0.1956611,-0.113003 0.46875,-0.234375 0.1505065,-0.06689 0.3067047,-0.126788 0.46875,-0.15625 0.1281081,-0.02329 0.2614221,0.01615 0.390625,0 0.081715,-0.01022 0.15625,-0.05208 0.234375,-0.07813 0.15625,-0.05208 0.3067047,-0.126788 0.46875,-0.15625 0.1281081,-0.02329 0.2625169,0.02329 0.390625,0 0.1620453,-0.02946 0.3079701,-0.120522 0.46875,-0.15625 0.076265,-0.01695 0.1581104,0.01695 0.234375,0 0.1607799,-0.03573 0.306289,-0.129174 0.46875,-0.15625 0.154124,-0.02569 0.3146259,0.02569 0.46875,0 0.162461,-0.02708 0.306289,-0.129174 0.46875,-0.15625 0.154124,-0.02569 0.3146259,0.02569 0.46875,0 0.162461,-0.02708 0.306289,-0.129174 0.46875,-0.15625 0.3082481,-0.05138 0.63106854,0.06129 0.9375,0 0.11420026,-0.02284 0.19829974,-0.13341 0.3125,-0.15625 0.15321573,-0.03064 0.3125,0 0.46875,0 0.15625,0 0.3125,0 0.46875,0 0.15625,0 0.3155343,0.03064 0.46875,0 0.1142003,-0.02284 0.1982997,-0.13341 0.3125,-0.15625 0.1532157,-0.03064 0.3125,0 0.46875,0 0.1041667,0 0.2083333,0 0.3125,0 0.7291667,0 1.4583333,0 2.1875,0 0.625,0 1.25,0 1.875,0 0.2864583,0 0.5729167,0 0.859375,0 0.1041667,0 0.2103562,-0.02043 0.3125,0 0.1615036,0.0323 0.3072465,0.123949 0.46875,0.15625 0.1021438,0.02043 0.2083333,0 0.3125,0 0.234375,0 0.46875,0 0.703125,0 0.15625,0 0.3155343,-0.03064 0.46875,0 0.1142003,0.02284 0.1995154,0.128003 0.3125,0.15625 0.1010565,0.02526 0.2083333,0 0.3125,0 0.15625,0 0.314626,-0.02569 0.46875,0 0.162461,0.02708 0.30797,0.120521 0.46875,0.15625 0.177951,0.03954 0.368123,-0.03575 0.546875,0 0.161504,0.0323 0.307246,0.123949 0.46875,0.15625 0.102144,0.02043 0.208333,0 0.3125,0 0.104167,0 0.208333,0 0.3125,0 0.130208,0 0.263517,-0.02825 0.390625,0 0.113689,0.02526 0.199515,0.128003 0.3125,0.15625 0.101057,0.02526 0.208333,0 0.3125,0 0.104167,0 0.208333,0 0.3125,0 0.130208,0 0.263517,-0.02825 0.390625,0 0.113689,0.02526 0.200519,0.124255 0.3125,0.15625 0.07512,0.02146 0.15625,0 0.234375,0 0.182292,0 0.364583,0 0.546875,0 0.546875,0 1.09375,0 1.640625,0 0.3125,0 0.625,0 0.9375,0 0.07813,0 0.15625,0 0.234375,0 0.104167,0 0.215784,0.03869 0.3125,0 0.05407,-0.02163 0.02604,-0.130209 0.07813,-0.15625 0.139754,-0.06988 0.323676,0.05803 0.46875,0 0.06839,-0.02736 0.08786,-0.128895 0.15625,-0.15625 0.07254,-0.02901 0.157767,0.01532 0.234375,0 0.0571,-0.01142 0.09915,-0.06671 0.15625,-0.07813 0.07661,-0.01532 0.164498,0.03494 0.234375,0 0.05208,-0.02604 0.03695,-0.115075 0.07813,-0.15625 0.01841,-0.01841 0.05208,0 0.07813,0 0.07813,0 0.157767,0.01532 0.234375,0 0.0571,-0.01142 0.101007,-0.05971 0.15625,-0.07813 0.02471,-0.0082 0.05483,0.01165 0.07813,0 0.03294,-0.01647 0.04319,-0.06648 0.07813,-0.07813 0.04941,-0.01647 0.112914,0.02889 0.15625,0 0.09571,-0.06381 0.03624,-0.194373 0.15625,-0.234375 0.04941,-0.01647 0.106839,0.01647 0.15625,0 0.03494,-0.01165 0.04519,-0.06166 0.07813,-0.07813 0.192418,-0.09621 -0.07053,0.226776 0.234375,-0.07813 0.04118,-0.04118 0.03695,-0.115075 0.07813,-0.15625 0.01841,-0.01841 0.05971,0.01841 0.07813,0 0.161643,-0.161644 -0.247013,0.0063 0.07813,-0.15625 0.02329,-0.01165 0.05971,0.01841 0.07813,0 0.01841,-0.01841 -0.01165,-0.05483 0,-0.07813 0.01647,-0.03294 0.06165,-0.04519 0.07813,-0.07813 0.01165,-0.02329 -0.01841,-0.05971 0,-0.07813 0.01841,-0.01841 0.05971,0.01841 0.07813,0 0.01841,-0.01841 -0.01165,-0.05483 0,-0.07813 0.01647,-0.03294 0.06165,-0.04519 0.07813,-0.07813 0.01165,-0.02329 -0.01165,-0.05483 0,-0.07813 0.01647,-0.03294 0.06165,-0.04519 0.07813,-0.07813 0.01165,-0.02329 -0.01165,-0.05483 0,-0.07813 0.01647,-0.03294 0.06165,-0.04519 0.07813,-0.07813 0.02329,-0.04659 -0.03683,-0.119422 0,-0.15625 0.01841,-0.01841 0.05971,0.01841 0.07813,0 0.01597,-0.01597 -0.01549,-0.2033996 0,-0.2343755 0.01647,-0.03294 0.06165,-0.045185 0.07813,-0.078125 0.07813,-0.15625 -0.15625,0 0,-0.234375 0.0323,-0.048451 0.115075,-0.036949 0.15625,-0.078125 0.01597,-0.015972 -0.01549,-0.2033991 0,-0.234375 0.01647,-0.03294 0.06165,-0.045185 0.07813,-0.078125 0.03125,-0.0625 -0.03125,-0.171875 0,-0.234375 0.01647,-0.03294 0.06648,-0.043186 0.07813,-0.078125 0.02097,-0.062904 -0.02243,-0.4238944 0,-0.46875 0.01647,-0.03294 0.06165,-0.045185 0.07813,-0.078125 0.01165,-0.023292 0,-0.052083 0,-0.078125 0,-0.026042 0,-0.052083 0,-0.078125 0,-0.1302083 0,-0.2604167 0,-0.390625 0,-0.026042 -0.01165,-0.054833 0,-0.078125 0.01647,-0.03294 0.06648,-0.043186 0.07813,-0.078125 0.01524,-0.045709 0,-0.401693 0,-0.46875 0,-0.052083 0,-0.1041667 0,-0.15625 0,-0.026042 -0.01165,-0.054833 0,-0.078125 0.01647,-0.03294 0.06648,-0.043186 0.07813,-0.078125 0.01192,-0.035763 0,-0.347019 0,-0.390625 0,-0.043606 -0.01192,-0.3548622 0,-0.390625 0.01165,-0.034939 0.06648,-0.043186 0.07813,-0.078125 0.01524,-0.045709 0,-0.401693 0,-0.46875 0,-0.026042 -0.01165,-0.054833 0,-0.078125 0.04199,-0.083982 0.114259,-0.1503931 0.15625,-0.234375 0.02071,-0.041425 -0.01772,-0.3374765 0,-0.390625 0.01165,-0.034939 0.06648,-0.043186 0.07813,-0.078125 0.01524,-0.045709 0,-0.401693 0,-0.46875 0,-0.026042 -0.01165,-0.054833 0,-0.078125 0.01647,-0.03294 0.06165,-0.045185 0.07813,-0.078125 0.01159,-0.023171 0,-0.3931851 0,-0.46875 0,-0.026042 -0.01841,-0.059711 0,-0.078125 0.01841,-0.018414 0.05971,0.018414 0.07813,0 0.01841,-0.018414 0,-0.052083 0,-0.078125 0,-0.026042 0,-0.052083 0,-0.078125 0,-0.390625 0,-0.78125 0,-1.171875 0,-0.546875 0,-1.09375 0,-1.64062501 0,-0.0286903 0.0031,-0.30935614 0,-0.3125 -0.01841,-0.0184142 -0.05971,0.0184142 -0.07813,0 -0.01841,-0.0184142 0,-0.0520833 0,-0.078125 0,-0.15625 0,-0.3125 0,-0.46875 0,-0.0260417 0,-0.0520833 0,-0.078125 0,-0.0260417 0.01841,-0.0597108 0,-0.078125 -0.01841,-0.0184142 -0.05971,0.0184142 -0.07813,0 -0.0025,-0.002512 0,-0.2154276 0,-0.234375 0,-0.52083329 0,-1.04166669 0,-1.56249999"
         style="fill:none;stroke:#000000;stroke-width:1px;stroke-linecap:butt;stroke-linejoin:miter;stroke-opacity:1" />
      <path
         inkscape:connector-curvature="0"
         id="path170"
         d="m -7.65625,32.421875 c -0.097149,-0.114661 0.3327879,-0.353076 0.390625,-0.46875 0.011646,-0.02329 -0.011646,-0.05483 0,-0.07813 0.046875,-0.09375 0.1875,-0.140625 0.234375,-0.234375 0.036829,-0.07366 0.028714,-0.168495 0.078125,-0.234375 0.034939,-0.04659 0.1077989,-0.04583 0.15625,-0.07813 0.030643,-0.02043 0.047482,-0.0577 0.078125,-0.07813 0.048451,-0.0323 0.1150745,-0.03695 0.15625,-0.07813 0.092071,-0.09207 0.1179131,-0.25427 0.234375,-0.3125 0.073657,-0.03683 0.1761441,-0.0199 0.234375,-0.07813 0.058231,-0.05823 0.019894,-0.176145 0.078125,-0.234375 0.5661223,-0.566123 -0.1108328,0.490103 0.46875,-0.234375 0.051444,-0.06431 0.01382,-0.182931 0.078125,-0.234375 0.2978249,-0.07446 0.3156505,-0.04169 0.546875,-0.234375 0.4058999,-0.33825 0.053101,-0.141236 0.46875,-0.390625 0.1085069,-0.0651 0.4079861,-0.182292 0.46875,-0.234375 0.098861,-0.08474 0.1343462,-0.229143 0.234375,-0.3125 0.063264,-0.05272 0.1586825,-0.04569 0.234375,-0.07813 0.1070453,-0.04588 0.2155979,-0.09165 0.3125,-0.15625 0.061286,-0.04086 0.098734,-0.110237 0.15625,-0.15625 0.073319,-0.05866 0.1622432,-0.09614 0.234375,-0.15625 0.084877,-0.07073 0.1328229,-0.190853 0.234375,-0.234375 0.095744,-0.04103 0.2123413,0.02862 0.3125,0 0.090282,-0.02579 0.1480723,-0.119264 0.234375,-0.15625 0.098691,-0.0423 0.2164631,-0.03011 0.3125,-0.07813 0.065881,-0.03294 0.098734,-0.110237 0.15625,-0.15625 0.073319,-0.05866 0.15625,-0.104167 0.234375,-0.15625 0.078125,-0.05208 0.1480723,-0.119264 0.234375,-0.15625 0.0986909,-0.0423 0.2204288,-0.02288 0.3125,-0.07813 0.0499326,-0.02996 0.0326543,-0.119874 0.078125,-0.15625 C -0.39834786,26.943638 -0.33014467,27.09458 0,26.953085 c 0.08630272,-0.03699 0.15925935,-0.09991 0.234375,-0.15625 0.0294628,-0.0221 0.0420117,-0.0709 0.078125,-0.07813 0.10214382,-0.02043 0.21578368,0.03869 0.3125,0 0.0540661,-0.02163 0.0431864,-0.109666 0.078125,-0.15625 0.0441942,-0.05893 0.0878612,-0.128895 0.15625,-0.15625 0.0725372,-0.02902 0.1585826,0.01895 0.234375,0 0.035729,-0.0089 0.043186,-0.06648 0.078125,-0.07813 0.049411,-0.01647 0.112914,0.02889 0.15625,0 0.048451,-0.0323 0.026042,-0.130209 0.078125,-0.15625 0.069877,-0.03494 0.1577671,0.01532 0.234375,0 0.0571,-0.01142 0.1010073,-0.05971 0.15625,-0.07813 0.024705,-0.0082 0.054833,0.01165 0.078125,0 0.03294,-0.01647 0.043186,-0.06648 0.078125,-0.07813 0.049411,-0.01647 0.1129141,0.02889 0.15625,0 0.048451,-0.0323 0.036949,-0.115075 0.078125,-0.15625 7.46e-5,-7.5e-5 0.2340209,1.18e-4 0.234375,0 0.069877,-0.02329 0.090369,-0.12331 0.15625,-0.15625 0.046585,-0.02329 0.1068394,0.01647 0.15625,0 0.055243,-0.01842 0.1010073,-0.05971 0.15625,-0.07813 0.049411,-0.01647 0.1096653,0.02329 0.15625,0 0.03294,-0.01647 0.045185,-0.06165 0.078125,-0.07813 0.046585,-0.02329 0.1068394,0.01647 0.15625,0 0.055243,-0.01842 0.099758,-0.064 0.15625,-0.07813 0.050528,-0.01263 0.1129141,0.02889 0.15625,0 0.048451,-0.0323 0.036949,-0.115075 0.078125,-0.15625 0.020966,-0.02097 0.2574776,0.01834 0.3125,0 0.055243,-0.01842 0.099758,-0.064 0.15625,-0.07813 0.073529,-0.01838 0.1608456,0.01838 0.234375,0 0.079892,-0.01997 0.1544828,-0.05815 0.234375,-0.07813 0.1014617,-0.02537 0.2911618,0.02486 0.390625,0 0.056492,-0.01412 0.09915,-0.0667 0.15625,-0.07813 0.076608,-0.01532 0.15625,0 0.234375,0 0.1041667,0 0.2083333,0 0.3125,0 0.078125,0 0.1602591,0.02471 0.234375,0 0.089076,-0.02969 0.1471961,-0.121379 0.234375,-0.15625 0.048358,-0.01934 0.1041667,0 0.15625,0 0.15625,0 0.3125,0 0.46875,0 0.4166667,0 0.8333333,0 1.25,0 0.4947917,0 0.9895833,0 1.484375,0 0.1302083,0 0.2604167,0 0.390625,0 0.078125,0 0.159256,-0.02146 0.234375,0 0.111981,0.03199 0.198811,0.130985 0.3125,0.15625 0.127108,0.02825 0.260417,0 0.390625,0 0.07813,0 0.159256,-0.02146 0.234375,0 0.111981,0.03199 0.200519,0.124255 0.3125,0.15625 0.07512,0.02146 0.156853,-0.0097 0.234375,0 0.131762,0.01647 0.25865,0.06346 0.390625,0.07813 0.10353,0.0115 0.208333,0 0.3125,0 0.07813,0 0.159256,-0.02146 0.234375,0 0.756211,0.21606 -0.17889,0.116496 0.703125,0.3125 0.101686,0.0226 0.212341,-0.02862 0.3125,0 0.09028,0.02579 0.144093,0.130455 0.234375,0.15625 0.100159,0.02862 0.211444,-0.02527 0.3125,0 0.112985,0.02825 0.200519,0.124255 0.3125,0.15625 0.07512,0.02146 0.15625,0 0.234375,0 0.104167,0 0.20938,-0.01473 0.3125,0 0.08152,0.01165 0.153623,0.06197 0.234375,0.07813 0.05107,0.01021 0.107892,-0.01934 0.15625,0 0.08718,0.03487 0.15625,0.104166 0.234375,0.15625 0.104167,0 0.212341,-0.02862 0.3125,0 0.09028,0.02579 0.145299,0.126557 0.234375,0.15625 0.07412,0.02471 0.15625,0 0.234375,0 0.130208,0 0.260417,0 0.390625,0 0.07813,0 0.157767,-0.01532 0.234375,0 0.0571,0.01142 0.09915,0.0667 0.15625,0.07813 0.07582,0.01516 0.532297,0 0.625,0 0.364583,0 0.729167,0 1.09375,0 0.260417,0 0.520833,0 0.78125,0 0.05208,0 0.104167,0 0.15625,0 0.05208,0 0.106839,0.01647 0.15625,0 0.03494,-0.01165 0.04319,-0.06648 0.07813,-0.07813 0.117188,-0.03906 0.273438,0.03906 0.390625,0 0.03494,-0.01165 0.04319,-0.06648 0.07813,-0.07813 0.0458,-0.01527 0.287794,0.01647 0.3125,0 0.04845,-0.0323 0.02604,-0.130209 0.07813,-0.15625 0.06988,-0.03494 0.158583,0.01895 0.234375,0 0.03573,-0.0089 0.04319,-0.06648 0.07813,-0.07813 0.04941,-0.01647 0.106839,0.01647 0.15625,0 0.03494,-0.01165 0.0424,-0.06919 0.07813,-0.07813 0.07579,-0.01895 0.15625,0 0.234375,0 0.02604,0 0.05483,0.01165 0.07813,0 0.03294,-0.01647 0.0424,-0.06919 0.07813,-0.07813 0.07579,-0.01895 0.164498,0.03494 0.234375,0 0.09627,-0.04814 0.03589,-0.204285 0.15625,-0.234375 0.07813,0 0.15625,0 0.234375,0 0.02604,-0.02604 0.04319,-0.06648 0.07813,-0.07813 0.04941,-0.01647 0.109665,0.02329 0.15625,0 0.06588,-0.03294 0.09037,-0.12331 0.15625,-0.15625 0.04659,-0.02329 0.106839,0.01647 0.15625,0 0.03494,-0.01165 0.04319,-0.06648 0.07813,-0.07813 0.04941,-0.01647 0.105722,0.01263 0.15625,0 0.05649,-0.01412 0.101007,-0.05971 0.15625,-0.07813 0.02471,-0.0082 0.05483,0.01165 0.07813,0 0.08398,-0.04199 0.159259,-0.09991 0.234375,-0.15625 0.02946,-0.0221 0.04519,-0.06165 0.07813,-0.07813 0.07366,-0.03683 0.154483,-0.05815 0.234375,-0.07813 0.02526,-0.0063 0.05971,0.01841 0.07813,0 0.15625,-0.15625 -0.02604,-0.182292 0.234375,-0.234375 0.07661,-0.01532 0.158583,0.01895 0.234375,0 0.08992,-0.02248 0.108113,-0.198273 0.15625,-0.234375 0.03413,-0.274704 0.223161,-0.01857 0.3125,-0.07813 0.09014,-0.0601 0.144231,-0.174279 0.234375,-0.234375 0.04845,-0.0323 0.104167,-0.05208 0.15625,-0.07813 0.05208,-0.05208 0.09732,-0.112056 0.15625,-0.15625 0.04659,-0.03494 0.107799,-0.04583 0.15625,-0.07813 0.179482,-0.119655 -0.0335,-0.04462 0.15625,-0.234375 0.18975,-0.189751 0.114721,0.02323 0.234375,-0.15625 0.0323,-0.04845 0.03695,-0.115075 0.07813,-0.15625 0.18975,-0.189751 0.114721,0.02323 0.234375,-0.15625 0.0323,-0.04845 0.03695,-0.115075 0.07813,-0.15625 0.09515,-0.09515 0.174548,-0.0366 0.234375,-0.15625 0.03683,-0.07366 0.02871,-0.168495 0.07813,-0.234375 0.03494,-0.04659 0.115075,-0.03695 0.15625,-0.07813 0.04118,-0.04118 0.03695,-0.115075 0.07813,-0.15625 0.04118,-0.04118 0.115075,-0.03695 0.15625,-0.07813 0.04118,-0.04118 0.04582,-0.107799 0.07813,-0.15625 0.02043,-0.03064 0.05603,-0.04866 0.07813,-0.07813 0.05634,-0.07512 0.09991,-0.15926 0.15625,-0.234375 0.0221,-0.02946 0.0577,-0.04748 0.07813,-0.07813 0.0323,-0.04845 0.04319,-0.109666 0.07813,-0.15625 0.04419,-0.05893 0.112056,-0.09733 0.15625,-0.15625 0.172122,-0.03934 0.0413,-0.160719 0.07813,-0.234375 0.04199,-0.08398 0.09991,-0.15926 0.15625,-0.234375 0.0221,-0.02946 0.06165,-0.04519 0.07813,-0.07813 0.03683,-0.07366 0.02871,-0.168495 0.07813,-0.234375 0.03494,-0.04659 0.121311,-0.03154 0.15625,-0.07813 0.04941,-0.06588 0.0413,-0.160719 0.07813,-0.234375 0.04199,-0.08398 0.107942,-0.153862 0.15625,-0.234375 0.02996,-0.04993 0.04817,-0.106318 0.07813,-0.15625 0.04831,-0.08051 0.114259,-0.150394 0.15625,-0.234375 0.01165,-0.02329 0,-0.05208 0,-0.07813 0.02604,-0.07813 0.02871,-0.168495 0.07813,-0.234375 0.03494,-0.04659 0.121311,-0.03154 0.15625,-0.07813 0.242094,-0.322793 -0.05399,-0.138457 0.07813,-0.46875 0.02736,-0.06839 0.118354,-0.09309 0.15625,-0.15625 0.04237,-0.07062 0.0413,-0.160719 0.07813,-0.234375 0.04199,-0.08398 0.114259,-0.150394 0.15625,-0.234375 0.17257,-0.101463 0.02881,-0.267336 0.07813,-0.390625 0.03155,-0.07888 0.211625,-0.276873 0.234375,-0.390625 0.01532,-0.07661 -0.03494,-0.164498 0,-0.234375 0.02604,-0.05208 0.121311,-0.03154 0.15625,-0.07813 0.282826,-0.377102 -0.04092,-0.09301 0.07813,-0.390625 0.03487,-0.08718 0.114259,-0.150394 0.15625,-0.234375 0.01165,-0.02329 0,-0.05208 0,-0.07813 0.02604,-0.07813 0.02871,-0.168495 0.07813,-0.234375 0.03494,-0.04659 0.130208,-0.02604 0.15625,-0.07813 0.03494,-0.06988 -0.01532,-0.157768 0,-0.234375 0.01142,-0.0571 0.05971,-0.101008 0.07813,-0.15625 0.0082,-0.02471 -0.01165,-0.05483 0,-0.07813 0.04199,-0.08398 0.121378,-0.147197 0.15625,-0.234375 0.01934,-0.04836 -0.01647,-0.10684 0,-0.15625 0.01165,-0.03494 0.06919,-0.0424 0.07813,-0.07813 0,-0.07813 0,-0.15625 0,-0.234375 0.02604,-0.02604 0.06919,-0.0424 0.07813,-0.07813 0.01895,-0.07579 -0.03494,-0.164498 0,-0.234375 0.02604,-0.05208 0.130208,-0.02604 0.15625,-0.07813 0.03494,-0.06988 0,-0.15625 0,-0.234375 0,-0.215095 -0.0082,0.1193 0.07813,-0.3125 0.01021,-0.05107 -0.02329,-0.109666 0,-0.15625 0.03294,-0.06588 0.12331,-0.09037 0.15625,-0.15625 0.02329,-0.04659 -0.01647,-0.10684 0,-0.15625 0.01165,-0.03494 0.05208,-0.05208 0.07813,-0.07813 0,-0.07813 -0.01895,-0.158583 0,-0.234375 0.0089,-0.03573 0.06919,-0.0424 0.07813,-0.07813 0.01895,-0.07579 -0.02471,-0.16026 0,-0.234375 0.02969,-0.08908 0.114259,-0.150394 0.15625,-0.234375 0.01165,-0.02329 -0.0063,-0.05286 0,-0.07813 0.01997,-0.07989 0.05815,-0.154483 0.07813,-0.234375 0.0063,-0.02526 -0.01165,-0.05483 0,-0.07813 0.04199,-0.08398 0.121378,-0.147197 0.15625,-0.234375 0.01934,-0.04836 -0.01263,-0.105722 0,-0.15625 0.01412,-0.05649 0.064,-0.09976 0.07813,-0.15625 0.03158,-0.126321 -0.03158,-0.264305 0,-0.390625 0.0089,-0.03573 0.06919,-0.0424 0.07813,-0.07813 0.01895,-0.07579 -0.0247,-0.16026 0,-0.234375 0.02969,-0.08908 0.114259,-0.150394 0.15625,-0.234375 0.01165,-0.02329 -0.0063,-0.05286 0,-0.07813 0.01997,-0.07989 0.05815,-0.154483 0.07813,-0.234375 0.06944,-0.277778 -0.208333,0.3125 0,-0.3125 0.02969,-0.08908 0.121378,-0.147197 0.15625,-0.2343755 0.01934,-0.048358 -0.01021,-0.1051781 0,-0.15625 0.01615,-0.080752 0.05815,-0.1544828 0.07813,-0.234375 0.06944,-0.2777778 -0.208333,0.3125 0,-0.3125 0.02969,-0.089076 0.114259,-0.1503931 0.15625,-0.234375 0.01165,-0.023292 0,-0.052083 0,-0.078125 0,-0.078125 0,-0.15625 0,-0.234375 0,-0.078125 0,-0.15625 0,-0.234375 0.02604,-0.026042 0.06919,-0.042396 0.07813,-0.078125 0.04504,-0.1801525 -0.04504,-0.4448475 0,-0.625 0.0089,-0.035729 0.06919,-0.042396 0.07813,-0.078125 0.01895,-0.075792 0,-0.15625 0,-0.234375 0,-0.15625 0,-0.3125 0,-0.46875 0,-0.065585 -0.0084,-0.5300972 0,-0.546875 0.02604,-0.052083 0.115075,-0.03695 0.15625,-0.078125 0.01841,-0.018414 0,-0.052083 0,-0.078125 0,-0.1302083 0,-0.2604167 0,-0.390625 0,-0.78125 0,-1.5625 0,-2.34375"
         style="fill:none;stroke:#000000;stroke-width:1px;stroke-linecap:butt;stroke-linejoin:miter;stroke-opacity:1" />
      <path
         inkscape:connector-curvature="0"
         id="path172"
         d="m -11.25,5.2343745 c -0.03815,0.3130889 0.364241,0.1039956 0.46875,0.15625 0.03294,0.01647 0.04519,0.061655 0.07813,0.078125 0.02329,0.011646 0.05483,-0.011646 0.07813,0 0.06588,0.03294 0.08637,0.1329576 0.15625,0.15625 0.04941,0.01647 0.106839,-0.01647 0.15625,0 0.03494,0.011646 0.04748,0.057696 0.07813,0.078125 0.04845,0.032301 0.101007,0.059711 0.15625,0.078125 0.02471,0.00824 0.05342,-0.00824 0.07813,0 0.055243,0.018414 0.1021839,0.056499 0.15625,0.078125 0.076461,0.030584 0.1637596,0.035756 0.234375,0.078125 0.06316,0.037896 0.09309,0.1183538 0.15625,0.15625 0.070615,0.042369 0.157914,0.047541 0.234375,0.078125 0.054066,0.021626 0.09915,0.066705 0.15625,0.078125 0.076608,0.015322 0.1602591,-0.024705 0.234375,0 0.089076,0.029692 0.1503931,0.1142591 0.234375,0.15625 0.073657,0.036828 0.160718,0.041296 0.234375,0.078125 0.4504116,0.3002744 0.015918,0.040304 0.46875,0.234375 0.1070453,0.045877 0.1988114,0.1309859 0.3125,0.15625 0.1271077,0.028246 0.2741631,-0.058231 0.390625,0 0.1164619,0.058231 0.1153891,0.2596174 0.234375,0.3125 0.142783,0.063459 0.3155343,-0.030643 0.46875,0 0.1142003,0.02284 0.2034533,0.1153575 0.3125,0.15625 0.100536,0.037701 0.2138091,0.035829 0.3125,0.078125 0.086303,0.036987 0.15625,0.1041667 0.234375,0.15625 0.15625,0.052083 0.3158281,0.095081 0.46875,0.15625 0.1081321,0.043253 0.1995154,0.1280039 0.3125,0.15625 0.1010565,0.025264 0.2123412,-0.028617 0.3125,0 0.090282,0.025795 0.1485731,0.1181158 0.234375,0.15625 0.1505065,0.066892 0.3125,0.1041667 0.46875,0.15625 0.078125,0.026042 0.1525277,0.069031 0.234375,0.078125 0.1552943,0.017255 0.3162208,-0.033895 0.46875,0 0.091659,0.020369 0.1528517,0.1096653 0.234375,0.15625 0.1011172,0.057781 0.2083333,0.1041667 0.3125,0.15625 0.1041667,0.052083 0.1988114,0.1309859 0.3125,0.15625 0.1271077,0.028246 0.2635173,-0.028246 0.390625,0 0.2273771,0.050528 0.4010382,0.2485109 0.625,0.3125 0.075119,0.021463 0.1570352,-0.011048 0.234375,0 0.10629339,0.015185 0.2059566,0.064807 0.3125,0.078125 0.10336228,0.01292 0.21234125,-0.028617 0.3125,0 0.0902819,0.025795 0.15285169,0.1096653 0.234375,0.15625 0.10111722,0.057781 0.20051912,0.1242555 0.3125,0.15625 0.0751191,0.021463 0.15925594,-0.021463 0.234375,0 0.11198088,0.031994 0.20051912,0.1242555 0.3125,0.15625 0.0751191,0.021463 0.15625,0 0.234375,0 0.1041667,0.052083 0.2005191,0.1242555 0.3125,0.15625 0.075119,0.021463 0.1570352,-0.011048 0.234375,0 0.1062934,0.015185 0.2065884,0.060473 0.3125,0.078125 0.086806,0.014468 0.3255208,-0.021701 0.390625,0 0.089076,0.029692 0.1440931,0.1304552 0.234375,0.15625 0.7625641,0 -0.095219,-0.057781 0.546875,0.1562505 0.097656,0.03255 0.2821181,-0.0217 0.390625,0 0.080752,0.01615 0.1531445,0.06459 0.234375,0.07813 0.077062,0.01284 0.15625,0 0.234375,0 0.052083,0 0.1078918,-0.01934 0.15625,0 0.087179,0.03487 0.1452988,0.126557 0.234375,0.15625 0.625,0.208333 0.034722,-0.06944 0.3125,0 0.079892,0.01997 0.1531445,0.06459 0.234375,0.07813 0.077062,0.01284 0.15625,0 0.234375,0 0.078125,0 0.15625,0 0.234375,0 0.052083,0 0.1078918,-0.01934 0.15625,0 0.087179,0.03487 0.1503932,0.114259 0.234375,0.15625 0.023292,0.01165 0.052083,0 0.078125,0 0.078125,0 0.15625,0 0.234375,0 0.079952,0 0.563509,-0.01537 0.625,0 0.035729,0.0089 0.042396,0.06919 0.078125,0.07813 0.075792,0.01895 0.15625,0 0.234375,0 0.15625,0 0.3125,0 0.46875,0 0.5208333,0 1.0416667,0 1.5625,0 0.2864583,0 0.5729167,0 0.859375,0 0.078125,0 0.15625,0 0.234375,0 0.02604,0 0.05208,0 0.07813,0 0.02604,0 0.05483,0.01165 0.07813,0 0.03294,-0.01647 0.04319,-0.06648 0.07813,-0.07813 0.07412,-0.02471 0.15625,0 0.234375,0 0.15625,0 0.3125,0 0.46875,0 0.05208,0 0.109665,0.02329 0.15625,0 0.02329,-0.01165 -0.01841,-0.05971 0,-0.07813 0.01841,-0.01841 0.05208,0 0.07813,0 0.02604,0 0.05208,0 0.07813,0 0.15625,0 0.3125,0 0.46875,0 0.02604,0 0.05208,0 0.07813,0 0.02604,0 0.05483,0.01165 0.07813,0 0.03294,-0.01647 0.04519,-0.06166 0.07813,-0.07813 0.02082,-0.01041 0.433407,0 0.46875,0 0.02604,0 0.05483,0.01165 0.07813,0 0.03294,-0.01647 0.04319,-0.06648 0.07813,-0.07813 0.07412,-0.02471 0.15625,0 0.234375,0 0.104167,0 0.219331,0.04658 0.3125,0 0.05208,-0.02604 0.03695,-0.115075 0.07813,-0.15625 0.01841,-0.01841 0.05208,0 0.07813,0 0.104167,0 0.211444,0.02526 0.3125,0 0.03573,-0.0089 0.04519,-0.06166 0.07813,-0.07813 0.03555,-0.01777 0.373591,0.0043 0.390625,0 0.03573,-0.0089 0.04519,-0.06166 0.07813,-0.07813 0.02329,-0.01165 0.05208,0 0.07813,0 0.07813,0 0.158583,0.01895 0.234375,0 0.03573,-0.0089 0.04519,-0.06166 0.07813,-0.078126 0.06988,-0.034939 0.164498,0.034939 0.234375,0 0.06588,-0.03294 0.09496,-0.1153925 0.15625,-0.15625 0.02167,-0.014445 0.05208,0 0.07813,0 0.05208,0 0.106839,0.01647 0.15625,0 0.03494,-0.011646 0.04519,-0.061655 0.07813,-0.078125 0.04659,-0.023292 0.105722,0.012632 0.15625,0 0.07989,-0.019973 0.154483,-0.058152 0.234375,-0.078125 0.02526,-0.00632 0.05483,0.011646 0.07813,0 0.03294,-0.01647 0.04319,-0.066479 0.07813,-0.078125 3.54e-4,-1.18e-4 0.2343,7.46e-5 0.234375,0 0.191405,-0.3828098 -0.02556,-0.065346 0.15625,-0.15625 0.03294,-0.01647 0.04319,-0.066479 0.07813,-0.078125 0.04941,-0.01647 0.104167,0 0.15625,0 0.02604,0 0.05483,0.011646 0.07813,0 0.03294,-0.01647 0.04519,-0.061655 0.07813,-0.078125 0.02329,-0.011646 0.05208,0 0.07813,0 0.02604,-0.026042 0.04519,-0.061655 0.07813,-0.078125 0.02329,-0.011646 0.05342,0.00824 0.07813,0 0.05524,-0.018414 0.101007,-0.059711 0.15625,-0.078125 0.02471,-0.00824 0.05971,0.018414 0.07813,0 0.01841,-0.018414 -0.01841,-0.059711 0,-0.078125 0.01841,-0.018414 0.05971,0.018414 0.07813,0 0.04118,-0.041175 0.03695,-0.1150745 0.07813,-0.15625 0.01841,-0.018414 0.05483,0.011646 0.07813,0 0.03294,-0.01647 0.04519,-0.061655 0.07813,-0.078125 0.02329,-0.011646 0.05342,0.00824 0.07813,0 0.05524,-0.018414 0.101007,-0.059711 0.15625,-0.078125 0.02471,-0.00824 0.05971,0.018414 0.07813,0 0.01841,-0.018414 -0.01841,-0.059711 0,-0.078125 0.161643,-0.1616434 -0.0063,0.2470125 0.15625,-0.078125 0.01165,-0.023292 -0.01841,-0.059711 0,-0.078125 0.01841,-0.018414 0.05483,0.011646 0.07813,0 0.04172,-0.020863 0.193245,-0.193245 0.234375,-0.234375 0.02604,-0.026042 0.05208,-0.052083 0.07813,-0.078125 0.02604,-0.026042 0.06165,-0.045185 0.07813,-0.078125 0.01165,-0.023292 -0.0082,-0.05342 0,-0.078125 0.188631,-0.5658919 -0.02252,0.1231725 0.15625,-0.234375 0.01165,-0.023292 -0.01165,-0.054833 0,-0.078125 0.01647,-0.03294 0.06165,-0.045185 0.07813,-0.078125 0.01165,-0.023292 -0.01165,-0.054833 0,-0.078125 0.01647,-0.03294 0.06165,-0.045185 0.07813,-0.078125 0.01165,-0.023292 -0.02329,-0.066479 0,-0.078125 0.04659,-0.023292 0.109665,0.023292 0.15625,0 0.02329,-0.011646 -0.01165,-0.054833 0,-0.078125 0.01647,-0.03294 0.06165,-0.045185 0.07813,-0.078125 0.01165,-0.023292 -0.01165,-0.054833 0,-0.078125 0.01647,-0.03294 0.06648,-0.043186 0.07813,-0.078125 0.01647,-0.049411 -0.01263,-0.1057217 0,-0.15625 0.01412,-0.056492 0.05971,-0.1010073 0.07813,-0.15625 0.0082,-0.024705 -0.01165,-0.054833 0,-0.078125 0.01647,-0.03294 0.06165,-0.045185 0.07813,-0.078125 0.01165,-0.023292 -0.0082,-0.05342 0,-0.078125 0.01841,-0.055243 0.05971,-0.1010073 0.07813,-0.15625 0.01647,-0.049411 -0.03683,-0.1194215 0,-0.15625 0.04118,-0.041176 0.123949,-0.029674 0.15625,-0.078125 0.02889,-0.043336 -0.01647,-0.1068394 0,-0.15625 0.01165,-0.034939 0.06165,-0.045185 0.07813,-0.078125 0.01165,-0.023292 -0.01165,-0.054833 0,-0.078125 0.01647,-0.03294 0.06165,-0.045185 0.07813,-0.078125 0.01165,-0.023292 -0.0082,-0.05342 0,-0.078125 0.01841,-0.055243 0.05971,-0.1010073 0.07813,-0.15625 0.0082,-0.024705 -0.01165,-0.054833 0,-0.078125 0.01647,-0.03294 0.06165,-0.045185 0.07813,-0.078125 0.02329,-0.046585 -0.03683,-0.1194215 0,-0.15625 0.04118,-0.041176 0.115075,-0.03695 0.15625,-0.078125 0.01841,-0.018414 -0.0082,-0.05342 0,-0.078125 0.01841,-0.055243 0.05971,-0.1010073 0.07813,-0.15625 0.01647,-0.049411 -0.02329,-0.1096652 0,-0.15625 0.01647,-0.03294 0.06165,-0.045185 0.07813,-0.078125 0.02329,-0.046585 -0.02329,-0.1096652 0,-0.15625 0.01647,-0.03294 0.06648,-0.043186 0.07813,-0.078125 0.01647,-0.049411 0,-0.1041667 0,-0.15625 0,-0.026042 -0.01165,-0.054833 0,-0.078125 0.01647,-0.03294 0.06165,-0.045185 0.07813,-0.078125 0.02329,-0.046585 -0.02329,-0.1096653 0,-0.15625 0.259108,-0.259108 -0.03683,0.073657 0.07813,-0.15625 0.01647,-0.03294 0.06165,-0.045185 0.07813,-0.078125 0.04168,-0.083365 -0.04168,-0.072885 0,-0.15625 0.01647,-0.03294 0.06165,-0.045185 0.07813,-0.078125 0.02329,-0.046585 -0.02329,-0.1096653 0,-0.15625 0.01647,-0.03294 0.06165,-0.045185 0.07813,-0.078125 0.02329,-0.046585 -0.02329,-0.1096653 0,-0.15625 0.01647,-0.03294 0.06165,-0.045185 0.07813,-0.078125 0.02329,-0.046585 -0.03683,-0.1194215 0,-0.15625 0.01841,-0.018414 0.05971,0.018414 0.07813,0 0.03906,-0.039063 -0.03906,-0.1953125 0,-0.234375 0.104167,-0.1041667 0.07813,0.1302083 0.07813,-0.078125 0,-0.026042 0,-0.052083 0,-0.078125 0,-0.026042 -0.01841,-0.059711 0,-0.078125 0.01841,-0.018414 0.05971,0.018414 0.07813,0 0.0188,-0.018799 -0.0188,-0.2937007 0,-0.3125 0.01841,-0.018414 0.05971,0.018414 0.07813,0 0.03906,-0.039063 -0.03906,-0.1953125 0,-0.234375 0.01841,-0.018414 0.05971,0.018414 0.07813,0 0.03906,-0.039063 -0.03906,-0.1953125 0,-0.234375 0.01841,-0.018414 0.05971,0.018414 0.07813,0 0.03906,-0.039063 -0.03906,-0.1953125 0,-0.234375 0.01841,-0.018414 0.05971,0.018414 0.07813,0 0.03683,-0.036828 -0.03683,-0.1194215 0,-0.15625 0.01841,-0.018414 0.05971,0.018414 0.07813,0 0.01841,-0.018414 -0.01165,-0.054833 0,-0.078125 0.01647,-0.03294 0.06165,-0.045185 0.07813,-0.078125 0.01165,-0.023292 -0.01841,-0.059711 0,-0.078125 0.01841,-0.0184142 0.05971,0.018414 0.07813,0 0.01841,-0.0184142 -0.01841,-0.0597108 0,-0.078125 0.01841,-0.0184142 0.05483,0.0116462 0.07813,0 0.03294,-0.0164702 0.04519,-0.0616548 0.07813,-0.078125 0.02329,-0.0116462 0.05971,0.0184142 0.07813,0 0.01841,-0.0184142 -0.01841,-0.0597108 0,-0.078125 0.05217,-0.0521739 0.104076,0.0521739 0.15625,0 0.01841,-0.0184142 -0.01841,-0.0597108 0,-0.078125 0.01597,-0.0159716 0.203399,0.015488 0.234375,0 0.03294,-0.0164702 0.04519,-0.0616548 0.07813,-0.078125 0.03098,-0.015488 0.218403,0.0159716 0.234375,0 0.01841,-0.0184142 -0.01841,-0.0597108 0,-0.078125 0.01597,-0.0159716 0.203399,0.015488 0.234375,0 0.03294,-0.0164702 0.04519,-0.0616548 0.07813,-0.078125 0.0625,-0.03125 0.171875,0.03125 0.234375,0 0.03294,-0.0164702 0.04519,-0.0616548 0.07813,-0.078125 0.04659,-0.0232924 0.109665,0.0232924 0.15625,0 0.03294,-0.0164702 0.04519,-0.0616548 0.07813,-0.078125 0.03098,-0.015488 0.218403,0.0159716 0.234375,0 0.01841,-0.0184142 -0.01841,-0.0597108 0,-0.078125 0.03906,-0.0390625 0.195313,0.0390625 0.234375,0 0.04118,-0.0411755 0.03695,-0.11507451 0.07813,-0.15625 0.01597,-0.01597159 0.203399,0.01548797 0.234375,0 0.03294,-0.01647019 0.04519,-0.0616548 0.07813,-0.07812499653 0.04238,-0.02119092347 0.291123,0.02137672653 0.3125,0 C 24.237164,-0.01841475 24.200336,-0.05971127 24.21875,-0.07812551 c 0.0025,-0.0025125 0.215428,0 0.234375,0"
         style="fill:none;stroke:#000000;stroke-width:1px;stroke-linecap:butt;stroke-linejoin:miter;stroke-opacity:1" />
      <path
         inkscape:connector-curvature="0"
         id="path174"
         d="m -5.078125,2.4999995 c 0.7786327,0 0.087061,-0.073657 0.390625,0.078125 0.046585,0.023292 0.1096652,-0.023292 0.15625,0 0.03294,0.01647 0.045185,0.061655 0.078125,0.078125 0.023292,0.011646 0.052083,0 0.078125,0 0.052083,0 0.1068394,-0.01647 0.15625,0 0.034939,0.011646 0.045185,0.061655 0.078125,0.078125 0.046585,0.023292 0.1096652,-0.023292 0.15625,0 0.03294,0.01647 0.042396,0.069193 0.078125,0.078125 0.1010565,0.025264 0.2083333,0 0.3125,0 0.026042,0 0.056457,-0.014445 0.078125,0 0.061286,0.040857 0.094964,0.1153925 0.15625,0.15625 0.021668,0.014445 0.052083,0 0.078125,0 0.078125,0 0.1585826,-0.018948 0.234375,0 0.035729,0.00893 0.042396,0.069193 0.078125,0.078125 0.1243768,0.04737 0.2643044,-0.03158 0.390625,0 0.4056695,0.1014174 -0.083402,0.078125 0.3125,0.078125 0.029195,0 0.5244727,-0.00747 0.546875,0 0.089076,0.029692 0.1452988,0.1265579 0.234375,0.15625 0.074116,0.024705 0.15625,0 0.234375,0 0.15625,0 0.3125,0 0.46875,0 0.078125,0 0.15731297,-0.012844 0.234375,0 0.0812305,0.013538 0.15314449,0.064587 0.234375,0.078125 0.077062,0.012844 0.15625,0 0.234375,0 0.078125,0 0.15625,0 0.234375,0 0.3125,0 0.625,0 0.9375,0 0.1822917,0 0.3645833,0 0.546875,0 0.078125,0 0.1592559,-0.021463 0.234375,0 0.1119809,0.031995 0.2005191,0.1242555 0.3125,0.15625 0.075119,0.021463 0.15625,0 0.234375,0 0.078125,0 0.15625,0 0.234375,0 0.3645833,0 0.7291667,0 1.09375,0 0.4427083,0 0.8854167,0 1.328125,0 0.018947,0 0.2318625,0.00251 0.234375,0 0.018414,-0.018414 -0.018414,-0.059711 0,-0.078125 0.039063,-0.039063 0.1953125,0.039063 0.234375,0 0.018414,-0.018414 -0.018414,-0.059711 0,-0.078125 0.018414,-0.018414 0.054833,0.011646 0.078125,0 0.03294,-0.01647 0.045185,-0.061655 0.078125,-0.078125 0.023292,-0.011646 0.059711,0.018414 0.078125,0 0.018414,-0.018414 -0.018414,-0.059711 0,-0.078125 0.018414,-0.018414 0.054833,0.011646 0.078125,0 C 5.953125,3.1562495 6,3.0156245 6.09375,2.9687495 c 0.023292,-0.011646 0.059711,0.018414 0.078125,0 0.018414,-0.018414 -0.018414,-0.059711 0,-0.078125 0.018414,-0.018414 0.059711,0.018414 0.078125,0 0.018414,-0.018414 -0.018414,-0.059711 0,-0.078125 0.018414,-0.018414 0.059711,0.018414 0.078125,0 0.018414,-0.018414 -0.018414,-0.059711 0,-0.078125 0.018414,-0.018414 0.059711,0.018414 0.078125,0 0.018414,-0.018414 -0.018414,-0.059711 0,-0.078125 0.018414,-0.018414 0.059711,0.018414 0.078125,0 0.018414,-0.018414 -0.011646,-0.054833 0,-0.078125 0.046875,-0.09375 0.1875,-0.140625 0.234375,-0.234375 0.011646,-0.023292 -0.011646,-0.054833 0,-0.078125 0.03294,-0.065881 0.1233096,-0.090369 0.15625,-0.15625 0.011646,-0.023292 -0.011646,-0.054833 0,-0.078125 0.01647,-0.03294 0.061655,-0.045185 0.078125,-0.078125 0.011646,-0.023292 -0.018414,-0.059711 0,-0.078125 0.018414,-0.018414 0.059711,0.018414 0.078125,0 0.018414,-0.018414 -0.011646,-0.054833 0,-0.078125 0.01647,-0.03294 0.061655,-0.045185 0.078125,-0.078125 0.023292,-0.046585 -0.023292,-0.1096653 0,-0.15625 0.01647,-0.03294 0.061655,-0.045185 0.078125,-0.078125 0.011646,-0.023292 -0.011646,-0.054833 0,-0.078125 0.01647,-0.03294 0.061655,-0.045185 0.078125,-0.078125 0.011646,-0.023292 -0.011646,-0.054833 0,-0.078125 0.01647,-0.03294 0.061655,-0.045185 0.078125,-0.078125 0.023292,-0.046585 -0.023292,-0.1096653 0,-0.15625 0.01647,-0.0329404 0.061655,-0.0451846 0.078125,-0.078125 0.011646,-0.0232924 -0.011646,-0.0548326 0,-0.078125 C 7.438345,0.8264341 7.48353,0.8141899 7.5,0.7812495 c 0.023292,-0.0465847 -0.036829,-0.11942152 0,-0.15625 0.018414,-0.0184142 0.059711,0.0184142 0.078125,0 0.036829,-0.0368285 -0.023292,-0.10966525 0,-0.15625 0.01647,-0.0329404 0.061655,-0.0451846 0.078125,-0.078125 0.011646,-0.0232924 -0.018414,-0.0597108 0,-0.078125 0.018414,-0.0184142 0.059711,0.0184142 0.078125,0 0.018414,-0.0184142 -0.011646,-0.0548326 0,-0.078125 C 7.750845,0.2014341 7.79603,0.1891899 7.8125,0.1562495 7.824146,0.1329571 7.800854,0.1014169 7.8125,0.0781245 7.8289702,0.0451841 7.8741548,0.03293989 7.890625,-5.0653074e-7 7.9022712,-0.02329288 7.8789788,-0.05483313 7.890625,-0.07812551 c 0.01647,-0.03294039 0.066479,-0.04318643 0.078125,-0.078125 0.01647,-0.0494106 -0.01647,-0.10683941 0,-0.15625 0.011646,-0.0349386 0.061655,-0.0451846 0.078125,-0.078125 0.096209,-0.19241808 -0.2267761,0.0705262 0.078125,-0.234375 0.018414,-0.0184142 0.059711,0.0184142 0.078125,0 0.018414,-0.0184142 -0.011646,-0.0548326 0,-0.078125 0.01647,-0.0329404 0.061655,-0.0451846 0.078125,-0.078125 0.011646,-0.0232924 -0.011646,-0.0548326 0,-0.078125 0.01647,-0.0329404 0.066479,-0.0431864 0.078125,-0.078125 0.01647,-0.0494106 -0.01647,-0.10683939 0,-0.15624999 0.011646,-0.034939 0.061655,-0.045185 0.078125,-0.078125 0.011646,-0.023292 -0.023292,-0.066479 0,-0.078125 0.046585,-0.023292 0.1096653,0.023292 0.15625,0 0.023292,-0.011646 -0.011646,-0.054833 0,-0.078125 0.01647,-0.03294 0.061655,-0.045185 0.078125,-0.078125 0.011646,-0.023292 -0.018414,-0.059711 0,-0.078125 0.018414,-0.018414 0.059711,0.018414 0.078125,0 0.018414,-0.018414 -0.011646,-0.054833 0,-0.078125 0.01647,-0.03294 0.061655,-0.045185 0.078125,-0.078125 0.011646,-0.023292 -0.018414,-0.059711 0,-0.078125 0.018414,-0.018414 0.059711,0.018414 0.078125,0 0.018414,-0.018414 -0.018414,-0.059711 0,-0.078125 0.018414,-0.018414 0.059711,0.018414 0.078125,0 0.018414,-0.018414 -0.018414,-0.059711 0,-0.078125 0.018414,-0.018414 0.059711,0.018414 0.078125,0 0.018414,-0.018414 -0.018414,-0.059711 0,-0.078125 0.018414,-0.018414 0.059711,0.018414 0.078125,0 0.018414,-0.018414 -0.018414,-0.059711 0,-0.078125 0.018414,-0.018414 0.052083,0 0.078125,0 0.055375,0 0.4485508,-0.0101 0.46875,0 0.03294,0.01647 0.045185,0.061655 0.078125,0.078125 0.049556,0.024778 0.339873,-0.025376 0.390625,0 0.193078,0.096539 -0.02697,0.078125 0.15625,0.078125"
         style="fill:none;stroke:#000000;stroke-width:1px;stroke-linecap:butt;stroke-linejoin:miter;stroke-opacity:1" />
      <path
         inkscape:connector-curvature="0"
         id="path176"
         d="m 9.0625,35.078125 c -0.026042,-0.104167 -0.057068,-0.207213 -0.078125,-0.3125 -0.010214,-0.05107 0,-0.104167 0,-0.15625 0,-0.130209 0,-0.260417 0,-0.390625 0,-0.03518 -0.011888,-0.210599 0,-0.234375 0.01647,-0.03294 0.061655,-0.04518 0.078125,-0.07813 0.011646,-0.02329 -0.011646,-0.05483 0,-0.07813 0.01647,-0.03294 0.061655,-0.04518 0.078125,-0.07813 0.023292,-0.04659 -0.023292,-0.109666 0,-0.15625 0.259108,-0.259108 -0.036829,0.07366 0.078125,-0.15625 0.03294,-0.06588 0.1233096,-0.09037 0.15625,-0.15625 0.011646,-0.02329 -0.011646,-0.05483 0,-0.07813 0.01647,-0.03294 0.061655,-0.04518 0.078125,-0.07813 0.011646,-0.02329 -0.011646,-0.05483 0,-0.07813 0.01647,-0.03294 0.061655,-0.04518 0.078125,-0.07813 0.011646,-0.02329 -0.018414,-0.05971 0,-0.07813 0.018414,-0.01841 0.059711,0.01841 0.078125,0 0.018414,-0.01841 -0.011646,-0.05483 0,-0.07813 0.01647,-0.03294 0.061655,-0.04518 0.078125,-0.07813 0.011646,-0.02329 -0.011646,-0.05483 0,-0.07813 0.044782,-0.08956 0.1630088,-0.108673 0.234375,-0.15625 0.15477,0.0078 0.03695,-0.115075 0.078125,-0.15625 0.104167,-0.104167 0.07497,0.165728 0.15625,-0.07813 0.01647,-0.04941 -0.01647,-0.10684 0,-0.15625 0.05182,-0.155465 0.07292,-0.03646 0.15625,-0.07813 0.03294,-0.01647 0.05208,-0.05208 0.07813,-0.07813 0.02604,-0.02604 0.06166,-0.04519 0.07813,-0.07813 0.01165,-0.02329 -0.01165,-0.05483 0,-0.07813 0.01647,-0.03294 0.05208,-0.05208 0.07813,-0.07813 0.02604,-0.02604 0.04319,-0.06648 0.07813,-0.07813 0.04941,-0.01647 0.106839,0.01647 0.15625,0 0.03494,-0.01165 0.05208,-0.05208 0.07813,-0.07813 0.02604,-0.02604 0.0577,-0.04748 0.07813,-0.07813 0.0323,-0.04845 0.04582,-0.107799 0.07813,-0.15625 0.02043,-0.03064 0.05208,-0.05208 0.07813,-0.07813 0.02604,-0.02604 0.04748,-0.0577 0.07813,-0.07813 0.04845,-0.0323 0.107799,-0.04583 0.15625,-0.07813 0.09193,-0.06129 0.145987,-0.168084 0.234375,-0.234375 0.04659,-0.03494 0.107799,-0.04583 0.15625,-0.07813 0.03064,-0.02043 0.04519,-0.06165 0.07813,-0.07813 0.02329,-0.01165 0.05646,0.01444 0.07813,0 0.421464,-0.280976 -0.05381,-0.02432 0.234375,-0.3125 0.06639,-0.06639 0.159259,-0.09991 0.234375,-0.15625 0.100065,-0.07505 0.05618,-0.0812 0.15625,-0.15625 0.176392,-0.132295 0.33267,-0.209185 0.46875,-0.390625 0.03494,-0.04659 0.04319,-0.109666 0.07813,-0.15625 0.06629,-0.08839 0.173089,-0.142446 0.234375,-0.234375 0.0323,-0.04845 0.03695,-0.115075 0.07813,-0.15625 0.04118,-0.04118 0.110779,-0.04175 0.15625,-0.07813 0.115033,-0.09203 0.208333,-0.208334 0.3125,-0.3125 0.05208,-0.05208 0.104167,-0.104167 0.15625,-0.15625 0.02604,-0.02604 0.06166,-0.04519 0.07813,-0.07813 0.03683,-0.07366 0.02871,-0.168495 0.07813,-0.234375 0.170455,-0.227273 0.168087,0.09706 0.234375,-0.234375 0.01532,-0.07661 -0.03494,-0.164498 0,-0.234375 0.02604,-0.05208 0.115075,-0.03695 0.15625,-0.07813 0.04118,-0.04118 0.03695,-0.115075 0.07813,-0.15625 0.09516,-0.09515 0.174548,-0.0366 0.234375,-0.15625 0.03683,-0.07366 0.03576,-0.16376 0.07813,-0.234375 0.133415,-0.222358 0.173915,-0.07066 0.234375,-0.3125 0.01263,-0.05053 -0.02889,-0.112915 0,-0.15625 0.0323,-0.04845 0.115075,-0.03695 0.15625,-0.07813 0.04118,-0.04118 0.04582,-0.107799 0.07813,-0.15625 0.02043,-0.03064 0.05603,-0.04866 0.07813,-0.07813 0.05634,-0.07512 0.09991,-0.15926 0.15625,-0.234375 0.0221,-0.02946 0.06166,-0.04519 0.07813,-0.07813 0.09621,-0.192419 -0.226776,0.07053 0.07813,-0.234375 0.04118,-0.04118 0.115075,-0.03695 0.15625,-0.07813 0.18975,-0.189751 -0.02323,-0.114721 0.15625,-0.234375 0.04845,-0.0323 0.115075,-0.03695 0.15625,-0.07813 0.04118,-0.04118 0.04582,-0.107799 0.07813,-0.15625 0.07951,-0.119268 0.232989,-0.115108 0.3125,-0.234375 0.416667,-0.625 -0.286458,0.286458 0.234375,-0.234375 0.04118,-0.04118 0.04582,-0.107799 0.07813,-0.15625 0.07165,-0.107477 0.120525,-0.08035 0.234375,-0.15625 0.179482,-0.119655 -0.0335,-0.04462 0.15625,-0.234375 0.08235,-0.08235 0.219331,-0.08637 0.3125,-0.15625 0.05893,-0.04419 0.104167,-0.104167 0.15625,-0.15625 0.02604,-0.02604 0.04519,-0.06165 0.07813,-0.07813 0.02329,-0.01165 0.05208,0 0.07813,0 0.07813,-0.02604 0.168494,-0.02871 0.234375,-0.07813 0.04659,-0.03494 0.04175,-0.11078 0.07813,-0.15625 0.06902,-0.08628 0.1481,-0.165356 0.234375,-0.234375 0.09094,-0.07275 0.219331,-0.08637 0.3125,-0.15625 0.145833,-0.109375 0.244792,-0.28125 0.390625,-0.390625 0.04659,-0.03494 0.104167,-0.05208 0.15625,-0.07813 0.181765,-0.09088 0.202074,-0.09296 0.390625,-0.234375 C 19.869792,22.5 19.869792,22.421875 20,22.34375 c 0.07062,-0.04237 0.168494,-0.02871 0.234375,-0.07813 0.04659,-0.03494 0.03695,-0.115075 0.07813,-0.15625 0.04118,-0.04118 0.115075,-0.03695 0.15625,-0.07813 0.04118,-0.04118 0.03154,-0.121312 0.07813,-0.15625 0.06588,-0.04941 0.16376,-0.03576 0.234375,-0.07813 0.06316,-0.0379 0.104167,-0.104167 0.15625,-0.15625 0.02604,-0.02604 0.04319,-0.06648 0.07813,-0.07813 0.04941,-0.01647 0.112914,0.02889 0.15625,0 0.04845,-0.0323 0.04582,-0.107799 0.07813,-0.15625 0.119655,-0.179482 0.04462,0.0335 0.234375,-0.15625 0.04118,-0.04118 0.03695,-0.115075 0.07813,-0.15625 0.04118,-0.04118 0.115075,-0.03695 0.15625,-0.07813 0.09515,-0.09515 0.0366,-0.174548 0.15625,-0.234375 0.02329,-0.01165 0.05971,0.01841 0.07813,0 0.01841,-0.01842 -0.01841,-0.05971 0,-0.07813 0.04118,-0.04118 0.101007,-0.05971 0.15625,-0.07813 0.02471,-0.0082 0.05971,0.01841 0.07813,0 0.04118,-0.04118 0.05971,-0.101008 0.07813,-0.15625 0.0082,-0.02471 -0.01841,-0.05971 0,-0.07813 0.01841,-0.01842 0.05971,0.01841 0.07813,0 0.01841,-0.01842 -0.01841,-0.05971 0,-0.07813 0.01841,-0.01842 0.05971,0.01841 0.07813,0 0.01841,-0.01842 -0.01841,-0.05971 0,-0.07813 0.01841,-0.01842 0.05971,0.01841 0.07813,0 0.01841,-0.01842 -0.01841,-0.05971 0,-0.07813 0.01841,-0.01842 0.05971,0.01841 0.07813,0 0.01841,-0.01842 -0.01841,-0.05971 0,-0.07813 0.03683,-0.03683 0.119422,0.03683 0.15625,0 0.01841,-0.01842 -0.01841,-0.05971 0,-0.07813 0.01841,-0.01842 0.05971,0.01841 0.07813,0 0.01841,-0.01842 -0.01841,-0.05971 0,-0.07813 0.01841,-0.01842 0.05971,0.01841 0.07813,0 0.01841,-0.01842 -0.01841,-0.05971 0,-0.07813 0.01841,-0.01842 0.05971,0.01841 0.07813,0 0.01841,-0.01842 -0.01841,-0.05971 0,-0.07813 0.01841,-0.01842 0.05483,0.01165 0.07813,0 0.09375,-0.04687 0.140625,-0.1875 0.234375,-0.234375 0.02329,-0.01165 0.05483,0.01165 0.07813,0 0.03294,-0.01647 0.05208,-0.05208 0.07813,-0.07813 0,-0.02604 -0.02329,-0.06648 0,-0.07813 0.04659,-0.02329 0.106839,0.01647 0.15625,0 0.03494,-0.01165 0.04519,-0.06165 0.07813,-0.07813 0.02329,-0.01165 0.05971,0.01841 0.07813,0 0.01841,-0.01842 -0.01165,-0.05483 0,-0.07813 0.01647,-0.03294 0.05208,-0.05208 0.07813,-0.07813 0.02604,-0.02604 0.04519,-0.06165 0.07813,-0.07813 0.02329,-0.01165 0.05483,0.01165 0.07813,0 0.03294,-0.01647 0.05208,-0.05208 0.07813,-0.07813 0.02604,-0.02604 0.0577,-0.04748 0.07813,-0.07813 0.0323,-0.04845 0.03695,-0.115075 0.07813,-0.15625 0.01841,-0.01842 0.05483,0.01165 0.07813,0 0.03294,-0.01647 0.05208,-0.05208 0.07813,-0.07813 0,-0.02604 -0.02329,-0.06648 0,-0.07813 0.04659,-0.02329 0.106839,0.01647 0.15625,0 0.06988,-0.02329 0.09037,-0.12331 0.15625,-0.15625 0.02329,-0.01165 0.05483,0.01165 0.07813,0 0.03294,-0.01647 0.04519,-0.06165 0.07813,-0.07813 0.02329,-0.01165 0.05971,0.01841 0.07813,0 0.01841,-0.01842 -0.01841,-0.05971 0,-0.07813 0.01841,-0.01842 0.05646,0.01444 0.07813,0 0.06129,-0.04086 0.09496,-0.115393 0.15625,-0.15625 0.02167,-0.01445 0.05971,0.01841 0.07813,0 0.01841,-0.01842 -0.01841,-0.05971 0,-0.07813 0.05217,-0.05217 0.104076,0.05217 0.15625,0 0.01841,-0.01842 -0.01841,-0.05971 0,-0.07813 0.03683,-0.03683 0.119422,0.03683 0.15625,0 0.01841,-0.01842 -0.01841,-0.05971 0,-0.07813 0.05217,-0.05217 0.104076,0.05217 0.15625,0 0.01841,-0.01842 -0.01841,-0.05971 0,-0.07813 0.02419,-0.02419 0.366434,0.02419 0.390625,0 0.01841,-0.01842 -0.01841,-0.05971 0,-0.07813 0.0025,-0.0025 0.215428,0 0.234375,0 0.15625,0 0.3125,0 0.46875,0 0.03518,0 0.210599,-0.01189 0.234375,0 0.03294,0.01647 0.04519,0.06165 0.07813,0.07813 0.0625,0.03125 0.171875,-0.03125 0.234375,0 0.03294,0.01647 0.04519,0.06165 0.07813,0.07813 0.05177,0.02589 0.247021,-0.02183 0.3125,0 0.05524,0.01841 0.101007,0.05971 0.15625,0.07813 0.234375,0.07813 -0.15625,-0.15625 0.234375,0 0.08718,0.03487 0.150393,0.114259 0.234375,0.15625 0.04659,0.02329 0.106839,-0.01647 0.15625,0 0.05524,0.01841 0.09976,0.064 0.15625,0.07813 0.101057,0.02526 0.211444,-0.02527 0.3125,0 0.05649,0.01412 0.09976,0.064 0.15625,0.07813 0.113153,0.02829 0.355711,-0.02261 0.46875,0 0.0571,0.01142 0.09976,0.064 0.15625,0.07813 0.07778,0.01944 0.420218,-0.02427 0.46875,0 0.06588,0.03294 0.09037,0.123309 0.15625,0.15625 0.04659,0.02329 0.104167,0 0.15625,0 0.15625,0 0.3125,0 0.46875,0 0.02604,0 0.05342,-0.0082 0.07813,0 0.05524,0.01841 0.09976,0.064 0.15625,0.07813 0.05053,0.01263 0.104167,0 0.15625,0 0.05208,0 0.104167,0 0.15625,0 0.234375,0 0.46875,0 0.703125,0 0.234375,0 0.46875,0 0.703125,0 0.02604,0 0.05208,0 0.07813,0 0.02604,0 0.05971,0.01841 0.07813,0 0.01841,-0.01842 -0.01841,-0.05971 0,-0.07813 0.03906,-0.03906 0.195313,0.03906 0.234375,0 0.01841,-0.01842 -0.01841,-0.05971 0,-0.07813 0.01597,-0.01597 0.203399,0.01549 0.234375,0 0.03294,-0.01647 0.04518,-0.06165 0.07813,-0.07813 0.04659,-0.02329 0.119422,0.03683 0.15625,0 0.01841,-0.01842 -0.01841,-0.05971 0,-0.07813 0.03683,-0.03683 0.109665,0.02329 0.15625,0 0.03294,-0.01647 0.04518,-0.06165 0.07813,-0.07813 0.04659,-0.02329 0.119422,0.03683 0.15625,0 0.01841,-0.01842 -0.01841,-0.05971 0,-0.07813 0.03906,-0.03906 0.195313,0.03906 0.234375,0 0.01841,-0.01842 -0.01841,-0.05971 0,-0.07813 0.03683,-0.03683 0.109665,0.02329 0.15625,0 0.03294,-0.01647 0.04518,-0.06165 0.07813,-0.07813 0.04659,-0.02329 0.119422,0.03683 0.15625,0 0.01841,-0.01842 -0.01841,-0.05971 0,-0.07813 0.03683,-0.03683 0.109665,0.02329 0.15625,0 0.03294,-0.01647 0.04518,-0.06165 0.07813,-0.07813 0.04659,-0.02329 0.109665,0.02329 0.15625,0 0.03294,-0.01647 0.04518,-0.06165 0.07813,-0.07813 0.04659,-0.02329 0.119422,0.03683 0.15625,0 0.01841,-0.01842 -0.01841,-0.05971 0,-0.07813 0.03906,-0.03906 0.195313,0.03906 0.234375,0 0.01841,-0.01842 -0.01841,-0.05971 0,-0.07813 0.01597,-0.01597 0.203399,0.01549 0.234375,0 0.03294,-0.01647 0.04518,-0.06165 0.07813,-0.07813 0.02329,-0.01165 0.05208,0 0.07813,0 0.02604,0 0.05208,0 0.07813,0"
         style="fill:none;stroke:#000000;stroke-width:1px;stroke-linecap:butt;stroke-linejoin:miter;stroke-opacity:1" />
      <path
         inkscape:connector-curvature="0"
         id="path178"
         d="m -0.3125,-0.46875051 c 0.0520833,0.10416667 0.0863729,0.2193305 0.15625,0.3125 0.015625,0.0208333 0.05971076,-0.0184142 0.078125,0 0.01841424,0.0184142 -0.01841424,0.05971076 0,0.078125 0.01841424,0.01841424 0.05483263,-0.01164618 0.078125,0 0.32513754,0.16256877 -0.08351841,-0.0053934 0.078125,0.15625 0.01841424,0.01841424 0.05971076,-0.01841424 0.078125,0 0.0184142,0.01841424 -0.0184142,0.05971076 0,0.078125 0.0184142,0.0184142 0.0597108,-0.0184142 0.078125,0 0.0368285,0.0368285 -0.0368285,0.11942153 0,0.15625 0.0184142,0.0184142 0.0597108,-0.0184142 0.078125,0 0.0184142,0.0184142 -0.0184142,0.0597108 0,0.078125 0.0184142,0.0184142 0.0597108,-0.0184142 0.078125,0 0.0184142,0.0184142 -0.0116462,0.0548326 0,0.078125 0.0329404,0.0658808 0.12330961,0.0903692 0.15625,0.15625 0.0116462,0.0232924 -0.0116462,0.0548326 0,0.078125 0.0329404,0.0658808 0.12330961,0.0903692 0.15625,0.15625 0.0116462,0.0232924 -0.0184142,0.0597108 0,0.078125 0.0184142,0.0184142 0.0597108,-0.0184142 0.078125,0 0.0184142,0.0184142 -0.0184142,0.0597108 0,0.078125 0.0184142,0.018414 0.0597108,-0.0184142 0.078125,0 0.0184142,0.018414 -0.0116462,0.054833 0,0.078125 0.0329404,0.065881 0.12330961,0.090369 0.15625,0.15625 0.011646,0.023292 -0.011646,0.054833 0,0.078125 0.031373,0.062745 0.1248775,0.093505 0.15625,0.15625 0.011646,0.023292 -0.018414,0.059711 0,0.078125 0.018414,0.018414 0.059711,-0.018414 0.078125,0 0.018414,0.018414 -0.018414,0.059711 0,0.078125 0.018414,0.018414 0.059711,-0.018414 0.078125,0 0.018414,0.018414 -0.011646,0.054833 0,0.078125 0.01647,0.03294 0.061655,0.045185 0.078125,0.078125 0.011646,0.023292 -0.018414,0.059711 0,0.078125 0.018414,0.018414 0.059711,-0.018414 0.078125,0 0.018414,0.018414 -0.018414,0.059711 0,0.078125 0.018414,0.018414 0.059711,-0.018414 0.078125,0 0.018414,0.018414 -0.011646,0.054833 0,0.078125 0.03294,0.065881 0.1233096,0.090369 0.15625,0.15625 0.011646,0.023292 -0.018414,0.059711 0,0.078125 0.018414,0.018414 0.054833,-0.011646 0.078125,0 0.020743,0.010372 0.2240035,0.213632 0.234375,0.234375 0.011646,0.023292 -0.018414,0.059711 0,0.078125 0.018414,0.018414 0.059711,-0.018414 0.078125,0 0.018414,0.018414 -0.011646,0.054833 0,0.078125 0.00748,0.014955 0.2975453,0.3050226 0.3125,0.3125 0.023292,0.011646 0.059711,-0.018414 0.078125,0 0.018414,0.018414 -0.011646,0.054833 0,0.078125 0.086369,0.1727387 0.048488,0.024244 0.15625,0.078125 0.3251375,0.1625688 -0.083518,-0.00539 0.078125,0.15625 0.018414,0.018414 0.052083,0 0.078125,0 0.026042,0.026042 0.057696,0.047482 0.078125,0.078125 0.032301,0.048451 0.045824,0.1077989 0.078125,0.15625 0.020429,0.030643 0.052083,0.052083 0.078125,0.078125 0.026042,0.026042 0.045185,0.061655 0.078125,0.078125 0.023292,0.011646 0.054833,-0.011646 0.078125,0 0.03294,0.01647 0.052083,0.052083 0.078125,0.078125 0.089387,0.089387 0.092482,0.1089524 0.234375,0.15625 0.024705,0.00824 0.054833,-0.011646 0.078125,0 0.03294,0.01647 0.052083,0.052083 0.078125,0.078125 0.026042,0.026042 0.057696,0.047482 0.078125,0.078125 0.032301,0.048451 0.029674,0.1239493 0.078125,0.15625 0.043336,0.028891 0.1068394,-0.01647 0.15625,0 0.034939,0.011646 0.047482,0.057696 0.078125,0.078125 0.014552,0.0097 0.3074938,0.1512438 0.3125,0.15625 0.095155,0.095155 0.036595,0.1745477 0.15625,0.234375 0.1924181,0.096209 -0.070526,-0.2267761 0.234375,0.078125 0.095155,0.095155 0.036595,0.1745477 0.15625,0.234375 0.023292,0.011646 0.052083,0 0.078125,0 0.052083,0.026042 0.1077989,0.045824 0.15625,0.078125 0.1794818,0.1196545 -0.0335,0.044625 0.15625,0.234375 0.3049012,0.3049011 0.041957,-0.018084 0.234375,0.078125 0.064267,0.032134 0.2547199,0.27398 0.3125,0.3125 0.021668,0.014445 0.059711,-0.018414 0.078125,0 0.018414,0.018414 -0.011646,0.054833 0,0.078125 0.03294,0.065881 0.1153925,0.094964 0.15625,0.15625 0.032301,0.048451 0.03695,0.1150745 0.078125,0.15625 0.3049012,0.3049011 0.041957,-0.018084 0.234375,0.078125 0.064267,0.032134 0.2547199,0.27398 0.3125,0.3125 0.021668,0.014445 0.054833,-0.011646 0.078125,0 0.03294,0.01647 0.052083,0.052083 0.078125,0.078125 0.026042,0.026042 0.061655,0.045185 0.078125,0.078125 0.011646,0.023292 -0.023292,0.066479 0,0.078125 0.1403005,0.07015 0.1926015,-0.1017227 0.3125,0.078125 0.028891,0.043336 -0.01647,0.1068394 0,0.15625 0.011646,0.034939 0.052083,0.052083 0.078125,0.078125 0.089387,0.089387 0.092482,0.1089524 0.234375,0.15625 0.024705,0.00824 0.054833,-0.011646 0.078125,0 0.03294,0.01647 0.052083,0.052083 0.078125,0.078125 0.052083,0.052083 0.1153925,0.094964 0.15625,0.15625 0.014445,0.021668 -0.023292,0.066479 0,0.078125 0.046585,0.023292 0.1068394,-0.01647 0.15625,0 0.034939,0.011646 0.047482,0.057696 0.078125,0.078125 0.048451,0.032301 0.1096653,0.043186 0.15625,0.078125 0.028474,0.021356 0.3641117,0.3817872 0.390625,0.390625 0.049411,0.01647 0.1129141,-0.028891 0.15625,0 0.048451,0.032301 0.03695,0.1150745 0.078125,0.15625 0.018414,0.018414 0.054833,-0.011646 0.078125,0 0.065881,0.03294 0.086373,0.1329576 0.15625,0.15625 0.049411,0.01647 0.1096653,-0.023292 0.15625,0 0.023292,0.011646 -0.018414,0.059711 0,0.078125 0.018414,0.018414 0.054833,-0.011646 0.078125,0 0.03294,0.01647 0.045185,0.061655 0.078125,0.078125 0.023292,0.011646 0.059711,-0.018414 0.078125,0 0.047857,0.047857 0.066509,0.2044614 0.15625,0.234375 0.049411,0.01647 0.1096653,-0.023292 0.15625,0 0.023292,0.011646 -0.018414,0.059711 0,0.078125 0.018414,0.018414 0.054833,-0.011646 0.078125,0 0.203257,0.1016287 -0.047007,0.054621 0.15625,0.15625 0.02329,0.011646 0.05971,-0.018414 0.07813,0 0.01841,0.018414 -0.01841,0.059711 0,0.078125 0.03683,0.036829 0.119422,-0.036828 0.15625,0 0.01841,0.018414 -0.01841,0.059711 0,0.078125 0.01841,0.018414 0.05483,-0.011646 0.07813,0 0.203257,0.1016287 -0.04701,0.054621 0.15625,0.15625 0.02329,0.011646 0.05971,-0.018414 0.07813,0 0.01841,0.018414 -0.01841,0.059711 0,0.078125 0.01841,0.018414 0.05483,-0.011646 0.07813,0 0.03294,0.01647 0.04519,0.061655 0.07813,0.078125 0.02329,0.011646 0.05971,-0.018414 0.07813,0 0.01841,0.018414 -0.01841,0.059711 0,0.078125 0.01841,0.018414 0.05483,-0.011646 0.07813,0 0.09375,0.046875 0.140625,0.1875 0.234375,0.234375 0.02329,0.011646 0.05971,-0.018414 0.07813,0 0.161643,0.1616434 -0.247013,-0.00632 0.07813,0.15625 0.02329,0.011646 0.05483,-0.011646 0.07813,0 0.03156,0.015778 0.310158,0.3101585 0.3125,0.3125005 0.02604,0.02604 0.04519,0.06165 0.07813,0.07813 0.02329,0.01165 0.05971,-0.01841 0.07813,0 0.04118,0.04118 0.03695,0.115074 0.07813,0.15625 0.01841,0.01841 0.05208,0 0.07813,0 0.05208,0.02604 0.115075,0.03695 0.15625,0.07813 0.04118,0.04118 0.04582,0.107798 0.07813,0.15625 0.0214,0.03209 0.202279,0.212977 0.234375,0.234375 0.04845,0.0323 0.115075,0.03695 0.15625,0.07813 0.09516,0.09515 0.0366,0.174547 0.15625,0.234375 0.07366,0.03683 0.168494,0.02871 0.234375,0.07813 0.04659,0.03494 0.04582,0.107798 0.07813,0.15625 0.119655,0.179481 0.04462,-0.0335 0.234375,0.15625 0.04118,0.04118 0.04582,0.107798 0.07813,0.15625 0.119655,0.179481 0.04462,-0.0335 0.234375,0.15625 0.520833,0.520833 -0.390625,-0.182292 0.234375,0.234375 0.03064,0.02043 0.05208,0.05208 0.07813,0.07813 0.02604,0.05208 0.03154,0.121311 0.07813,0.15625 0.06588,0.04941 0.160718,0.0413 0.234375,0.07813 0.05063,0.02531 0.403089,0.403088 0.46875,0.46875 0.208333,0.208333 0.416667,0.416666 0.625,0.625 0.08503,0.08503 0.254266,0.225148 0.3125,0.3125 0.01445,0.02167 -0.01841,0.05971 0,0.07813 0.01841,0.01841 0.05208,0 0.07813,0 0.02604,0.02604 0.0577,0.04748 0.07813,0.07813 0.0323,0.04845 0.03695,0.115074 0.07813,0.15625 0.04118,0.04118 0.107799,0.04582 0.15625,0.07813 0.03064,0.02043 0.04519,0.06165 0.07813,0.07813 0.02329,0.01165 0.05483,-0.01165 0.07813,0 0.03294,0.01647 0.05208,0.05208 0.07813,0.07813 0.05208,0.05208 0.115392,0.09496 0.15625,0.15625 0.08082,0.121232 -0.132713,0.05083 0.07813,0.15625 0.02329,0.01165 0.05483,-0.01165 0.07813,0 0.03294,0.01647 0.04748,0.0577 0.07813,0.07813 0.04845,0.0323 0.115075,0.03695 0.15625,0.07813 0.04118,0.04118 0.05971,0.101007 0.07813,0.15625 0.0082,0.02471 -0.01841,0.05971 0,0.07813 0.01841,0.01841 0.05483,-0.01165 0.07813,0 0.06588,0.03294 0.09496,0.115392 0.15625,0.15625 0.04845,0.0323 0.115075,0.03695 0.15625,0.07813 0.04118,0.04118 0.03695,0.115074 0.07813,0.15625 0.01841,0.01841 0.05971,-0.01841 0.07813,0 0.01841,0.01841 -0.01165,0.05483 0,0.07813 0.0067,0.0134 0.22467,0.231139 0.234375,0.234375 0.04941,0.01647 0.109665,-0.02329 0.15625,0 0.02329,0.01165 -0.0082,0.05342 0,0.07813 0.01841,0.05524 0.04582,0.107798 0.07813,0.15625 0.04086,0.06129 0.104167,0.104166 0.15625,0.15625 0.02604,0.02604 0.04748,0.0577 0.07813,0.07813 0.04845,0.0323 0.115075,0.03695 0.15625,0.07813 0.04118,0.04117 0.04582,0.107798 0.07813,0.15625 0.0214,0.0321 0.202279,0.212977 0.234375,0.234375 0.04845,0.0323 0.123949,0.02967 0.15625,0.07813 0.02889,0.04333 -0.01647,0.106839 0,0.15625 0.01763,0.0529 0.204536,0.174696 0.234375,0.234375 0.09621,0.192418 -0.226776,-0.07053 0.07813,0.234375 0.04118,0.04117 0.107799,0.04582 0.15625,0.07813 0.03064,0.02043 0.05208,0.05208 0.07813,0.07813 0.02604,0.02604 0.0577,0.04748 0.07813,0.07813 0.0323,0.04845 0.04319,0.109665 0.07813,0.15625 0.04419,0.05892 0.115393,0.09496 0.15625,0.15625 0.01444,0.02167 0,0.05208 0,0.07813 0.02604,0.05208 0.04582,0.107798 0.07813,0.15625 0.04086,0.06129 0.132958,0.08637 0.15625,0.15625 0.01647,0.04941 -0.02889,0.112914 0,0.15625 0.104353,0.156529 0.232436,-0.0039 0.3125,0.15625 0.09621,0.192418 -0.226776,-0.07053 0.07813,0.234375 0.09515,0.09515 0.174548,0.03659 0.234375,0.15625 0.01165,0.02329 0,0.05208 0,0.07813 0.02604,0.05208 0.04582,0.107798 0.07813,0.15625 0.02043,0.03064 0.06165,0.04518 0.07813,0.07813 0.01165,0.02329 -0.02329,0.06648 0,0.07813 0.04659,0.02329 0.109665,-0.02329 0.15625,0 0.02329,0.01165 -0.01165,0.05483 0,0.07813 0.03294,0.06588 0.132958,0.08637 0.15625,0.15625 0.01647,0.04941 -0.01647,0.106839 0,0.15625 0.01763,0.0529 0.204536,0.174696 0.234375,0.234375 0.01165,0.02329 -0.01841,0.05971 0,0.07813 0.04118,0.04117 0.101007,0.05971 0.15625,0.07813 0.02471,0.0082 0.05971,-0.01842 0.07813,0 0.01841,0.01841 -0.0082,0.05342 0,0.07813 0.01841,0.05524 0.05971,0.101007 0.07813,0.15625 0.0082,0.02471 -0.01165,0.05483 0,0.07813 0.03844,0.07688 0.274061,0.235622 0.3125,0.3125 0.01165,0.02329 -0.01841,0.05971 0,0.07813 0.01841,0.01841 0.05483,-0.01165 0.07813,0 0.210838,0.105419 -0.0027,0.03502 0.07813,0.15625 0.04086,0.06129 0.104167,0.104166 0.15625,0.15625 0.02604,0.02604 0.06165,0.04518 0.07813,0.07813 0.01165,0.02329 -0.01841,0.05971 0,0.07813 0.01841,0.01841 0.05971,-0.01842 0.07813,0 0.01841,0.01841 -0.01165,0.05483 0,0.07813 0.03333,0.06667 0.122917,0.08958 0.15625,0.15625 0.01165,0.02329 -0.01841,0.05971 0,0.07813 0.01841,0.01841 0.05971,-0.01842 0.07813,0 0.01841,0.01841 -0.01165,0.05483 0,0.07813 0.01647,0.03294 0.0577,0.04748 0.07813,0.07813 0.0323,0.04845 0.05971,0.101007 0.07813,0.15625 0.02604,0.07813 -0.05524,0.111794 0.07813,0.15625 0.04941,0.01647 0.109665,-0.02329 0.15625,0 0.02329,0.01165 -0.01165,0.05483 0,0.07813 0.01647,0.03294 0.06165,0.04518 0.07813,0.07813 0.01165,0.02329 -0.01165,0.05483 0,0.07813 0.03294,0.06588 0.132958,0.08637 0.15625,0.15625 0.01647,0.04941 -0.01647,0.106839 0,0.15625 0.02329,0.06988 0.12331,0.09037 0.15625,0.15625 0.01165,0.02329 -0.01165,0.05483 0,0.07813 0.01647,0.03294 0.05208,0.05208 0.07813,0.07813 0.02604,0.02604 0.04748,0.0577 0.07813,0.07813 0.04845,0.0323 0.123949,0.02967 0.15625,0.07813 0.02889,0.04333 -0.01647,0.106839 0,0.15625 0.02329,0.06988 0.12331,0.09037 0.15625,0.15625 0.01165,0.02329 -0.01165,0.05483 0,0.07813 0.178774,0.357547 -0.03238,-0.331517 0.15625,0.234375 0.0082,0.02471 -0.01841,0.05971 0,0.07813 0.04118,0.04117 0.101007,0.05971 0.15625,0.07813 0.02471,0.0082 0.05971,-0.01842 0.07813,0 0.01841,0.01841 -0.01165,0.05483 0,0.07813 0.01647,0.03294 0.0577,0.04748 0.07813,0.07813 0.0323,0.04845 0.05971,0.101007 0.07813,0.15625 0.02604,0.07813 -0.05524,0.111794 0.07813,0.15625 0.04941,0.01647 0.109665,-0.02329 0.15625,0 0.02329,0.01165 -0.01165,0.05483 0,0.07813 0.03294,0.06588 0.132958,0.08637 0.15625,0.15625 0.01647,0.04941 -0.02329,0.109665 0,0.15625 0.01165,0.02329 0.05971,-0.01842 0.07813,0 0.01841,0.01841 -0.01165,0.05483 0,0.07813 0.04687,0.09375 0.1875,0.140625 0.234375,0.234375 0.01165,0.02329 -0.01841,0.05971 0,0.07813 0.01841,0.01841 0.05342,-0.0082 0.07813,0 0.05524,0.01841 0.115075,0.03695 0.15625,0.07813 0.01841,0.01841 -0.01165,0.05483 0,0.07813 0.01647,0.03294 0.04519,0.06165 0.07813,0.07813 0.02329,0.01165 0.06648,-0.02329 0.07813,0 0.02329,0.04658 -0.01647,0.106839 0,0.15625 0.01165,0.03494 0.05208,0.05208 0.07813,0.07813 0.02604,0.02604 0.04519,0.06165 0.07813,0.07813 0.02329,0.01165 0.05971,-0.01842 0.07813,0 0.01841,0.01841 -0.01841,0.05971 0,0.07813 0.01841,0.01841 0.05971,-0.01842 0.07813,0 0.01841,0.01841 -0.01841,0.05971 0,0.07813 0.161643,0.161643 -0.0063,-0.247013 0.15625,0.07813 0.01165,0.02329 -0.01841,0.05971 0,0.07813 0.01841,0.01841 0.05971,-0.01842 0.07813,0 0.01841,0.01841 -0.01841,0.05971 0,0.07813 0.01841,0.01841 0.05483,-0.01165 0.07813,0 0.07688,0.03844 0.235623,0.274061 0.3125,0.3125 0.02329,0.01165 0.05483,-0.01165 0.07813,0 0.06588,0.03294 0.09037,0.123309 0.15625,0.15625 0.02329,0.01165 0.05971,-0.01842 0.07813,0 0.01841,0.01841 -0.01841,0.05971 0,0.07813 0.01841,0.01841 0.05483,-0.01165 0.07813,0 0.06588,0.03294 0.09037,0.123309 0.15625,0.15625 0.02329,0.01165 0.05971,-0.01842 0.07813,0 0.01841,0.01841 -0.01841,0.05971 0,0.07813 0.01841,0.01841 0.05483,-0.01165 0.07813,0 0.03294,0.01647 0.04519,0.06165 0.07813,0.07813 0.02329,0.01165 0.05971,-0.01842 0.07813,0 0.01841,0.01841 -0.01841,0.05971 0,0.07813 0.01841,0.01841 0.05483,-0.01165 0.07813,0 0.03294,0.01647 0.04519,0.06165 0.07813,0.07813 0.02329,0.01165 0.05971,-0.01842 0.07813,0 0.01841,0.01841 -0.01841,0.05971 0,0.07813 0.01841,0.01841 0.05971,-0.01842 0.07813,0 0.01841,0.01841 -0.01841,0.05971 0,0.07813 0.01841,0.01841 0.05483,-0.01165 0.07813,0 0.03294,0.01647 0.04519,0.06165 0.07813,0.07813 0.02329,0.01165 0.05971,-0.01842 0.07813,0 0.01841,0.01841 -0.01841,0.05971 0,0.07813 0.01841,0.01841 0.05971,-0.01842 0.07813,0 0.01841,0.01841 -0.01841,0.05971 0,0.07813 0.03683,0.03683 0.119422,-0.03683 0.15625,0 0.01841,0.01841 -0.01841,0.05971 0,0.07813 0.01841,0.01841 0.05971,-0.01842 0.07813,0 0.01841,0.01841 -0.01841,0.05971 0,0.07813 0.03683,0.03683 0.119422,-0.03683 0.15625,0 0.01841,0.01841 -0.01841,0.05971 0,0.07813 0.01841,0.01841 0.05971,-0.01842 0.07813,0 0.01841,0.01841 -0.01841,0.05971 0,0.07813 0.01841,0.01841 0.05483,-0.01165 0.07813,0 0.03294,0.01647 0.04519,0.06165 0.07813,0.07813 0.02329,0.01165 0.05971,-0.01842 0.07813,0 0.01841,0.01841 -0.01841,0.05971 0,0.07813 0.01841,0.01841 0.05483,-0.01165 0.07813,0 0.03294,0.01647 0.04519,0.06165 0.07813,0.07813 0.02329,0.01165 0.05971,-0.01842 0.07813,0 0.01841,0.01841 -0.01841,0.05971 0,0.07813 0.01841,0.01841 0.05483,-0.01165 0.07813,0 0.03294,0.01647 0.04519,0.06165 0.07813,0.07813 0.02329,0.01165 0.05971,-0.01842 0.07813,0 0.01841,0.01841 -0.01841,0.05971 0,0.07813 0.01841,0.01841 0.05971,-0.01842 0.07813,0 0.01841,0.01841 -0.01841,0.05971 0,0.07813 0.01841,0.01841 0.05971,-0.01842 0.07813,0 0.01841,0.01841 -0.01841,0.05971 0,0.07813 0.01841,0.01841 0.05971,-0.01842 0.07813,0 0.01841,0.01841 -0.01841,0.05971 0,0.07813 0.01841,0.01841 0.05971,-0.01842 0.07813,0 0.01841,0.01841 -0.01841,0.05971 0,0.07813 0.01841,0.01841 0.05971,-0.01842 0.07813,0 0.01841,0.01841 -0.01841,0.05971 0,0.07813 0.01841,0.01841 0.05971,-0.01842 0.07813,0 0.01841,0.01841 -0.01165,0.05483 0,0.07813 0.01647,0.03294 0.05208,0.05208 0.07813,0.07813 0.02604,0.02604 0.04519,0.06165 0.07813,0.07813 0.02329,0.01165 0.05971,-0.01842 0.07813,0 0.03683,0.03683 -0.03683,0.119421 0,0.15625 0.01841,0.01841 0.05483,-0.01165 0.07813,0 0.325138,0.162568 -0.08352,-0.0054 0.07813,0.15625 0.01841,0.01841 0.05971,-0.01842 0.07813,0 0.01841,0.01841 -0.01165,0.05483 0,0.07813 0.01647,0.03294 0.06165,0.04518 0.07813,0.07813 0.01165,0.02329 -0.01165,0.05483 0,0.07813 0.102857,0.205714 0.05339,-0.04947 0.15625,0.15625 0.01165,0.02329 -0.01841,0.05971 0,0.07813 0.01841,0.01841 0.05971,-0.01842 0.07813,0 0.03683,0.03683 -0.03683,0.119421 0,0.15625 0.01841,0.01841 0.05971,-0.01842 0.07813,0 0.01841,0.01841 -0.01165,0.05483 0,0.07813 0.01647,0.03294 0.06165,0.04518 0.07813,0.07813 0.01165,0.02329 0,0.05208 0,0.07813 0.02604,0.02604 0.06165,0.04518 0.07813,0.07813 0.02329,0.04658 -0.03683,0.119421 0,0.15625 0.01841,0.01841 0.05971,-0.01842 0.07813,0 0.03683,0.03683 -0.02329,0.109665 0,0.15625 0.09654,0.193078 0.07813,-0.02697 0.07813,0.15625"
         style="fill:none;stroke:#000000;stroke-width:1px;stroke-linecap:butt;stroke-linejoin:miter;stroke-opacity:1" />
    </g>
    <ellipse
       style="fill:#aa4400"
       id="path77"
       cx="15.781235"
       cy="312.17966"
       rx="1.640625"
       ry="5.859375" />
    <rect
       style="fill:#aa4400;stroke-width:0.9770084"
       id="rect81"
       width="3.28125"
       height="12.1875"
       x="14.14061"
       y="299.83591" />
    <path
       style="fill:#d40000"
       id="path75"
       sodipodi:type="arc"
       sodipodi:cx="15.70311"
       sodipodi:cy="299.67966"
       sodipodi:rx="12.1875"
       sodipodi:ry="2.578125"
       sodipodi:start="6.2344023"
       sodipodi:end="3.1393698"
       sodipodi:open="true"
       d="m 27.876111,299.55394 a 12.1875,2.578125 0 0 1 -5.731607,2.31433 12.1875,2.578125 0 0 1 -12.3469242,0.0666 12.1875,2.578125 0 0 1 -6.2819399,-2.24951" />
    <path
       style="fill:#ffcc00;stroke:#000000;stroke-width:1px;stroke-linecap:butt;stroke-linejoin:miter;stroke-opacity:1"
       d="m 5.6249863,299.60155 c 0.232924,-0.0752 -0.05823,-0.27417 0,-0.39063 1.44202,-8.02583 0.612576,-4.85546 4.14078,-1.64064 3.0554987,-11.38407 2.2970287,-4.05192 5.4396077,-1.44531 3.636528,-9.63864 1.380815,-7.505 2.763897,-0.39063 5.604347,-6.27064 4.161277,-8.02622 5.273437,0.82032 5.714059,-7.34213 2.002134,-3.61874 2.460988,2.42187 0.01841,0.0184 0.05971,-0.0184 0.07813,0 0.03683,0.0368 -0.03683,0.11942 0,0.15625 0.01841,0.0184 0.05971,-0.0184 0.07813,0 0.0025,0.002 0,0.21543 0,0.23438"
       id="path83"
       inkscape:connector-curvature="0"
       sodipodi:nodetypes="ccccccccccc" />
    <text
       xml:space="preserve"
       style="font-style:normal;font-weight:normal;font-size:36.84239578px;line-height:1.25;font-family:sans-serif;letter-spacing:0px;word-spacing:0px;fill:#000000;fill-opacity:1;stroke:none;stroke-width:0.92105985"
       x="34.635128"
       y="321.74811"
       id="text190"
       transform="scale(1.0154603,0.98477509)"><tspan
         sodipodi:role="line"
         id="tspan188"
         x="34.635128"
         y="321.74811"
         style="stroke-width:0.92105985">S</tspan></text>
    <path
       style="fill:#ffe680;fill-rule:evenodd;stroke:#ff2a2a;stroke-width:1.25519729px;stroke-linecap:butt;stroke-linejoin:miter;stroke-opacity:1"
       d="M 66.509329,305.13994 76.688024,292.39409"
       id="path205"
       inkscape:connector-type="polyline"
       inkscape:connector-curvature="0"
       sodipodi:nodetypes="cc" />
    <path
       style="fill:none;fill-rule:evenodd;stroke:#ff0000;stroke-width:1.41584802px;stroke-linecap:butt;stroke-linejoin:miter;stroke-opacity:1"
       d="m 84.140686,305.60692 8.214858,-12.6212"
       id="path207"
       inkscape:connector-type="polyline"
       inkscape:connector-curvature="0"
       sodipodi:nodetypes="cc" />
    <path
       style="fill:none;fill-rule:evenodd;stroke:#ff5555;stroke-width:2.34222245px;stroke-linecap:butt;stroke-linejoin:miter;stroke-opacity:1"
       d="M 79.381029,303.71128 H 72.258471"
       id="path234"
       inkscape:connector-type="polyline"
       inkscape:connector-curvature="0" />
    <ellipse
       style="fill:#00ffff;stroke-width:1.30579865"
       id="path201-7"
       cx="81.209793"
       cy="304.79251"
       rx="4.5719118"
       ry="2.7031384" />
    <ellipse
       style="fill:#00ffff;stroke-width:1.30579865"
       id="path201"
       cx="70.477829"
       cy="304.90067"
       rx="4.5719118"
       ry="2.7031384" />
    <flowRoot
       xml:space="preserve"
       id="flowRoot4788"
       style="fill:black;fill-opacity:1;stroke:none;font-family:sans-serif;font-style:normal;font-weight:normal;font-size:40px;line-height:1.25;letter-spacing:0px;word-spacing:0px"><flowRegion
         id="flowRegion4790"><rect
           id="rect4792"
           width="47.5"
           height="72.5"
           x="138.125"
           y="133.125" /></flowRegion><flowPara
         id="flowPara4794" /></flowRoot>    <text
       xml:space="preserve"
       style="font-style:normal;font-weight:normal;font-size:47.53388596px;line-height:1.25;font-family:sans-serif;letter-spacing:0px;word-spacing:0px;fill:#000000;fill-opacity:1;stroke:none;stroke-width:1.18834698"
       x="80.768517"
       y="371.01913"
       id="text4834"
       transform="scale(1.1634113,0.85954125)"><tspan
         sodipodi:role="line"
         id="tspan4832"
         x="80.768517"
         y="371.01913"
         style="stroke-width:1.18834698">E</tspan></text>
  </g>
</svg>
